<svg xmlns="http://www.w3.org/2000/svg" width="256" height="256.00098" viewBox="0 0 67.733 67.73326"><path fill="#273339" d="m 34.725358,30.773553 c -0.320428,-0.02654 -0.647703,-0.01939 -0.980814,0.01654 -0.666226,0.07187 -1.356734,0.263769 -1.990051,0.680573 -0.519737,0.342057 -0.985478,0.887567 -1.235577,1.560106 -0.467477,0.523317 -0.674086,1.156602 -0.764806,1.78696 -0.1114,0.774051 -0.04556,1.593821 0.209287,2.396743 0.254853,0.802919 0.710966,1.602351 1.457786,2.199338 0.705926,0.564298 1.682173,0.881069 2.737805,0.82992 2.487576,0.233938 4.506276,-1.270933 5.094752,-3.211158 0.552963,-1.823134 -0.249932,-4.033688 -2.279951,-5.179505 -0.339327,-0.497372 -0.864871,-0.752046 -1.308443,-0.894515 -0.305693,-0.09818 -0.619561,-0.158464 -0.939988,-0.184999 z m -0.696595,2.646853 c 0.320814,-0.03461 0.643818,0.008 0.804081,0.05581 0.140959,0.24108 0.354588,0.431375 0.610295,0.543635 1.382907,0.606538 1.51854,1.453288 1.278469,2.244811 -0.240071,0.791524 -0.946452,1.500715 -2.356434,1.346683 -0.08705,-0.0094 -0.174812,-0.01005 -0.261997,-0.0021 -0.527431,0.04747 -0.788161,-0.06834 -1.030423,-0.261997 -0.242264,-0.193659 -0.457941,-0.524905 -0.58756,-0.933271 -0.129618,-0.408369 -0.160932,-0.880505 -0.112135,-1.219559 0.04879,-0.339054 0.203583,-0.484985 0.108518,-0.411859 0.25565,-0.196757 0.430605,-0.480137 0.491959,-0.796847 0.02666,-0.137771 0.06126,-0.190462 0.235126,-0.304889 0.173868,-0.114429 0.490009,-0.224836 0.820101,-0.260449 z" color="#000" font-family="sans-serif" font-weight="400" overflow="visible" style="line-height:normal;font-variant-ligatures:normal;font-variant-position:normal;font-variant-caps:normal;font-variant-numeric:normal;font-variant-alternates:normal;font-variant-east-asian:normal;font-feature-settings:normal;font-variation-settings:normal;text-indent:0;text-align:start;text-decoration-line:none;text-decoration-style:solid;text-decoration-color:#000;text-transform:none;text-orientation:mixed;white-space:normal;shape-padding:0;shape-margin:0;inline-size:0;isolation:auto;mix-blend-mode:normal;solid-color:#000;solid-opacity:1"/><path fill="#f9ff3d" d="m 31.674912,33.734197 c -1.289838,0.992183 -0.760673,5.490077 2.546602,5.192423 3.935658,0.429945 5.52315,-4.464822 1.752856,-6.11846 -0.231509,-1.058328 -3.902585,-1.124474 -4.299458,0.926037 z"/></svg>