<svg xmlns="http://www.w3.org/2000/svg" width="256" height="256.00098" viewBox="0 0 67.733 67.73326"><path fill="#273339" d="m 26.694363,8.2678056 c -0.7525,0.0112 -1.34412,0.64699 -1.3012,1.39836 0,0 0.39635,6.9069604 1.26813,13.0094804 0.16338,1.13965 1.60365,1.54127 2.33318,0.6506 0.53123,-0.64928 2.22725,-0.41393 2.22725,-0.41393 1.00988,0.25251 1.90232,-0.70626 1.57819,-1.69549 -2.60751,-7.95624 -4.92164,-12.2550104 -4.92164,-12.2550104 -0.23443,-0.43392 -0.69076,-0.70142 -1.18391,-0.69401 z m 2.01279,9.3146304 c 0.29477,0.78523 0.61274,1.71442 0.92862,2.6236 -0.19692,0.0259 -0.39332,0.0681 -0.59737,0.12248 -0.1152,-0.92827 -0.23684,-1.8429 -0.33125,-2.74608 z m 14.53496,5.4353 c -0.0949,5.3e-4 -0.18952,0.0113 -0.28215,0.032 0,0 -2.56412,0.58408 -5.12214,2.72334 -0.0404,0.0339 -0.0787,0.0701 -0.11472,0.10852 -0.68358,-0.32655 -1.40603,-0.50351 -2.13836,-0.56689 -0.8343,-0.61859 -1.83797,-0.97411 -2.88457,-0.97409 -0.0103,-3e-5 -0.0202,-4e-5 -0.0305,0 -0.002,-10e-6 -0.003,-10e-6 -0.005,0 -1.83395,0.0135 -3.43894,1.09615 -4.2514,2.69904 -1.20544,0.45826 -2.43464,1.43759 -3.03907,3.11298 -0.35632,-0.14448 -0.63632,-0.27349 -1.45986,-0.54054 -1.20221,-0.38985 -2.6555,-0.80562 -4.04417,-0.77307 -1.01547,0.0238 -1.62652,1.13555 -1.10226,2.00555 0.61698,1.02362 1.58465,1.72242 2.46444,2.38227 0.81464,0.61098 1.43424,1.00564 1.53788,1.07228 -0.0872,0.44135 -0.13699,0.89507 -0.10438,1.36477 -1.30632,0.77819 -2.16932,2.18117 -2.16937,3.75789 0,0.0603 0.0156,0.1165 0.0181,0.17622 -0.22098,-0.79771 -1.11193,-1.19889 -1.85569,-0.83561 0,0 -1.50825,0.7366 -3.29332,1.82986 -1.78508,1.09325 -3.86085,2.49776 -5.16969,4.16354 -0.7261605,0.92442 0.0238,2.26601 1.19166,2.13166 1.9225,-0.22185 4.71781,-0.96107 7.12304,-1.64589 2.40523,-0.68484 4.37594,-1.31931 4.37594,-1.31931 0.21839,-0.0706 0.41464,-0.1969 0.56947,-0.36636 0.4539,0.16007 0.93329,0.26458 1.43918,0.26458 0.92674,-8e-5 1.819,-0.29784 2.55952,-0.82838 0.75355,0.25431 1.60567,0.36205 2.52283,0.32297 0.56073,0.78737 1.29957,1.35837 2.10787,1.71307 0.74839,0.85251 1.81522,1.37188 2.96311,1.37201 0.65912,0 1.27603,-0.17915 1.82727,-0.46974 2.08963,4.2276 5.9438,8.94412 5.9438,8.94412 0.89311,1.09677 2.65267,0.21561 2.30941,-1.15651 0,0 -0.46805,-1.866 -1.13843,-4.09896 -0.67037,-2.233 -1.505,-4.79616 -2.42516,-6.46935 -0.45301,-0.82343 -1.59607,-0.92522 -2.18746,-0.19481 0,0 -0.21857,0.18878 -0.47128,0.37155 0.0173,-0.0741 0.0226,-0.15227 0.0357,-0.22791 0.15629,-0.20693 0.30797,-0.41603 0.43821,-0.64802 0.70028,-0.0473 1.33025,-0.27294 1.8867,-0.60409 0.0192,0.5811 0.41545,1.08161 0.97668,1.23351 8.21771,2.22283 15.60672,2.68924 15.60672,2.68924 1.28069,0.0811 1.91535,-1.52537 0.92501,-2.34145 0,0 -4.21724,-3.38323 -13.18621,-6.45952 0.41049,-0.57015 0.70382,-1.23001 0.70382,-1.97817 0,-1.61506 -1.13616,-2.98035 -2.6422,-3.35895 -0.46792,-0.80637 -1.15355,-1.52306 -2.05206,-1.97558 0.3057,-0.0793 0.57295,-0.26536 0.75344,-0.52451 1.58865,-2.28368 2.17453,-4.4426 2.17453,-4.4426 0.23009,-0.84479 -0.40912,-1.67607 -1.28467,-1.67069 z m -10.55796,3.96873 c 0.004,0 0.008,-10e-6 0.0114,0 0.002,10e-6 0.003,10e-6 0.005,0 0.54897,0 1.0777,0.20316 1.48518,0.57102 0.23284,0.21029 0.53285,0.33099 0.84645,0.34055 0.68508,0.0206 1.3623,0.19573 1.74769,0.42323 0.38539,0.2275 0.47455,0.3447 0.48524,0.69039 0.0196,0.6301 0.48111,1.15884 1.10277,1.26349 -0.005,0.006 -0.0148,0.005 0.007,0.0532 0.0616,0.13558 0.0863,0.28938 0.0863,0.28938 0.0639,0.66827 0.61815,1.18276 1.28932,1.19682 0.88631,0.0185 1.48325,0.64359 1.83657,1.52032 0.20203,0.50115 0.68851,0.82909 1.22886,0.82836 7.9e-4,0 0.002,0 0.003,0 h 0.002 c 0.47231,0 0.82682,0.35452 0.82682,0.82682 0,0.47231 -0.35451,0.82682 -0.82682,0.82682 -0.037,-1.1e-4 -0.0739,-0.003 -0.11059,-0.008 -0.76859,-0.10607 -1.46306,0.46896 -1.50222,1.24385 -0.0318,0.62902 -0.32803,1.55607 -0.76791,2.11252 -0.43988,0.55645 -0.80933,0.80594 -1.63142,0.64492 -0.64419,-0.12602 -1.28337,0.23933 -1.50171,0.85835 -0.14027,0.39807 -0.34898,0.74147 -0.61029,1.03867 -0.1953,0.22225 -0.31047,0.50353 -0.32711,0.79894 -0.0403,0.71357 -0.60612,1.24798 -1.32085,1.24798 -0.43416,-6e-5 -0.83708,-0.21064 -1.0852,-0.5669 -0.16005,-0.22989 -0.38894,-0.40306 -0.6537,-0.49455 -0.59423,-0.20537 -1.08161,-0.58529 -1.43091,-1.32342 -0.24994,-0.52805 -0.81662,-0.82967 -1.39423,-0.74207 -1.17846,0.17886 -2.04167,-0.0122 -2.65925,-0.34106 -0.54114,-0.28795 -1.20922,-0.16649 -1.61437,0.29351 -0.33323,0.37854 -0.81136,0.59476 -1.31567,0.59481 -0.98375,0 -1.75286,-0.76911 -1.75286,-1.75287 3e-5,-0.81153 0.54117,-1.50432 1.3286,-1.70066 0.74834,-0.18661 1.17907,-0.97117 0.93482,-1.70273 -0.21255,-0.63598 -0.0732,-1.48152 0.27285,-2.13939 0.34601,-0.65788 0.95557,-0.87919 0.69918,-0.87385 0.65991,-0.0138 1.2087,-0.51187 1.28622,-1.16736 0.23041,-1.95175 1.01962,-2.2497 1.96834,-2.46237 0.45271,-0.10148 0.81919,-0.43266 0.96583,-0.87281 0.301,-0.90427 1.13315,-1.50916 2.08617,-1.51618 z m 12.05864,12.48548 c 2.9202,0.9979 5.32295,2.00323 7.15663,2.90368 -2.17068,-0.33342 -4.68944,-0.82031 -7.4362,-1.49809 0.13039,-0.41346 0.23545,-0.88168 0.27957,-1.40559 z m -26.19931,2.37761 c 0.1152,0.16764 0.25712,0.33229 0.41393,0.49403 -0.54971,0.16433 -0.52763,0.17015 -1.1715,0.35348 -0.42731,0.12166 -0.88152,0.22924 -1.32911,0.35036 0.0971,-0.061 0.1947,-0.14033 0.29042,-0.19896 0.97672,-0.59817 1.22958,-0.70099 1.79626,-0.99891 z" color="#000" font-family="sans-serif" font-weight="400" overflow="visible" style="line-height:normal;font-variant-ligatures:normal;font-variant-position:normal;font-variant-caps:normal;font-variant-numeric:normal;font-variant-alternates:normal;font-variant-east-asian:normal;font-feature-settings:normal;font-variation-settings:normal;text-indent:0;text-align:start;text-decoration-line:none;text-decoration-style:solid;text-decoration-color:#000;text-transform:none;text-orientation:mixed;white-space:normal;shape-padding:0;shape-margin:0;inline-size:0;isolation:auto;mix-blend-mode:normal;solid-color:#000;solid-opacity:1"/><path fill="#f9ff3d" d="m 26.714003,9.5903156 c 0,0 2.24895,4.1671704 4.82862,12.0384804 0,0 -2.38123,-0.59531 -3.57185,0.8599 -0.85989,-6.01925 -1.25677,-12.8983804 -1.25677,-12.8983804 z"/><path fill="#f9ff3d" d="m 38.686343,26.788146 c 2.32336,-1.94301 4.56404,-2.44738 4.56404,-2.44738 0,0 -0.52916,1.94304 -1.98437,4.03488 -0.53743,-1.98437 -2.57967,-1.5875 -2.57967,-1.5875 z"/><path fill="#f9ff3d" d="m 25.523383,31.616776 c 0,0 -3.50571,-1.50482 -5.62236,-1.45521 0.7276,1.20716 3.70414,3.10884 3.70414,3.10884 0.29766,-1.62056 1.91822,-1.65363 1.91822,-1.65363 z"/><path fill="#f9ff3d" d="m 19.239563,39.951106 c 0,0 -5.8208,2.84426 -8.00361,5.62237 3.43957,-0.39688 11.24474,-2.9104 11.24474,-2.9104 -3.37342,-0.66146 -3.24113,-2.71197 -3.24113,-2.71197 z"/><path fill="#f9ff3d" d="m 42.588923,41.803176 c 0,0 1.38906,-1.71978 0.66146,-4.23331 10.18641,3.17499 14.6843,6.87913 14.6843,6.87913 0,0 -7.276,-0.46301 -15.34576,-2.64582 z"/><path fill="#f9ff3d" d="m 40.406123,43.787546 c 1.59256,2.89585 3.43957,10.25255 3.43957,10.25255 0,0 -4.03488,-4.96091 -5.9531,-8.99579 1.38906,0.13229 2.51353,-1.25676 2.51353,-1.25676 z"/><path fill="#606277" d="m 26.350203,31.682916 c -1.58749,0.0331 -3.80336,4.10102 -1.12447,6.28382 -0.26458,2.11666 1.75285,4.53097 5.457,3.96873 1.64522,3.47664 6.64763,2.64582 7.87132,-0.82681 3.20806,0.62838 4.43175,-3.63801 3.83644,-5.09321 1.62056,-0.69453 0.56223,-5.457 -2.61275,-5.52315 0,0 -0.13229,-1.38905 -1.19062,-1.52135 -0.0992,-3.20805 -6.81299,-2.87732 -6.77991,-0.89296 0,0 -4.89477,-1.15755 -5.45701,3.60493 z"/><circle cx="35.511353" cy="34.957138" r="4.9939861" fill="#ffe400"/><circle cx="32.70018" cy="29.202469" r="3.5387847" fill="#ffe400"/><circle cx="28.764511" cy="33.865738" r="2.6788931" fill="#ffe400"/><circle cx="24.895004" cy="39.421951" r="3.0757661" fill="#ffe400"/><circle cx="35.04834" cy="42.431564" r="2.6458204" fill="#ffe400"/><circle cx="42.820435" cy="34.990204" r="2.149729" fill="#ffe400"/></svg>