<svg xmlns="http://www.w3.org/2000/svg" width="256" height="256.00098" viewBox="0 0 67.733 67.73326"><path fill="#273339" d="m 27.452451,12.236792 c -0.747341,-0.006 -1.351293,0.607803 -1.333243,1.354951 0,0 0.211914,7.278459 1.336344,16.865036 -1.317403,-0.211097 -3.162333,-0.427361 -5.636321,-0.427361 -1.130136,1.22e-4 -1.739868,1.325604 -1.004583,2.183837 0,0 1.436437,1.603084 4.045726,3.312958 -2.871019,1.429249 -7.942739,4.232908 -11.787336,8.125563 -0.933691,0.94622 -0.04525,2.524078 1.247981,2.216391 8.134117,-1.940773 14.378439,-3.515388 15.105979,-3.698466 0.337768,0.396053 0.797604,0.862982 1.423163,1.280022 1.191881,0.794587 3.03578,1.329498 5.283888,0.945156 2.070286,3.965415 5.472507,8.401514 5.472507,8.401514 0.790854,1.027562 2.434424,0.422244 2.369869,-0.872811 0,0 -0.297948,-3.429484 -2.357466,-8.948247 8.008298,1.650474 13.670417,2.260833 13.670417,2.260833 1.319412,0.13146 1.990456,-1.543765 0.945156,-2.359535 0,0 -4.368504,-3.356898 -12.513902,-6.543238 0.39946,-2.649088 -0.0037,-4.576558 -0.725019,-5.813053 -0.284849,-0.488312 -0.613973,-0.842675 -0.933786,-1.140494 1.055238,-2.106845 1.644851,-3.614233 1.644851,-3.614233 0.371118,-1.072989 -0.692811,-2.084319 -1.74562,-1.659321 0,0 -3.222636,1.325138 -6.303979,3.526384 -0.1006,-0.02572 -0.197542,-0.04036 -0.306955,-0.05943 -3.551987,-10.136149 -6.833659,-14.78507 -6.833659,-14.78507 -0.246329,-0.343094 -0.641662,-0.547962 -1.064012,-0.551386 z m 1.60713,7.005741 c 1.167857,2.395118 2.563123,5.548896 4.086551,10.014843 0.198276,0.580829 0.769961,0.949045 1.380788,0.889347 0.330622,-0.0323 0.5843,0.04875 0.774109,0.137975 0.445815,0.209448 0.971077,0.153896 1.363216,-0.144176 1.019133,-0.774607 2.062386,-1.402764 3.039077,-1.951293 -0.177093,0.352794 -0.24659,0.546984 -0.463019,0.950326 -0.371023,0.692146 -0.06098,1.553242 0.666107,1.850008 0,0 0.354982,0.09414 0.804081,0.864024 0.449101,0.769886 0.898086,2.220211 0.257864,5.024992 -0.147539,0.646041 0.205633,1.30158 0.826303,1.533748 3.046016,1.139351 5.357603,2.250125 7.320963,3.273687 -2.572057,-0.417987 -5.623423,-0.95892 -9.283625,-1.769393 -1.051121,-0.232191 -1.924784,0.821192 -1.502225,1.81125 0.584927,1.369265 0.993222,2.52666 1.373035,3.636971 -0.634142,-1.027584 -1.227258,-2.064634 -1.673275,-3.004454 -0.280589,-0.590901 -0.950884,-0.888053 -1.577158,-0.699179 -2.067851,0.623189 -3.284336,0.153958 -4.13461,-0.412893 -0.850274,-0.566849 -1.205089,-1.210257 -1.205089,-1.210257 -0.290879,-0.525187 -0.898917,-0.788684 -1.481038,-0.641818 0,0 -5.828315,1.425994 -10.371924,2.539369 4.379455,-3.092387 8.901219,-5.067884 8.901219,-5.067884 1.027327,-0.44037 1.079502,-1.877342 0.08682,-2.391057 -1.026443,-0.530918 -1.866948,-1.067848 -2.600861,-1.582841 1.832602,0.201787 2.988431,0.46767 2.988431,0.46767 0.904223,0.231065 1.757016,-0.521509 1.640203,-1.447449 -0.633733,-5.006487 -0.998589,-9.401859 -1.21594,-12.671516 z" color="#000" font-family="sans-serif" font-weight="400" overflow="visible" style="line-height:normal;font-variant-ligatures:normal;font-variant-position:normal;font-variant-caps:normal;font-variant-numeric:normal;font-variant-alternates:normal;font-variant-east-asian:normal;font-feature-settings:normal;font-variation-settings:normal;text-indent:0;text-align:start;text-decoration-line:none;text-decoration-style:solid;text-decoration-color:#000;text-transform:none;text-orientation:mixed;white-space:normal;shape-padding:0;shape-margin:0;inline-size:0;isolation:auto;mix-blend-mode:normal;solid-color:#000;solid-opacity:1"/><path fill="#f9ff3d" d="m 27.441598,13.559186 c 0,0 0.198437,8.069752 1.521347,18.520743 0,0 -2.844256,-0.727601 -7.143714,-0.727601 0,0 1.984365,2.315093 5.820804,4.299459 0,0 -8.334333,3.571857 -13.625974,8.929643 8.583287,-2.047944 15.941067,-3.902585 15.941067,-3.902585 0,0 2.05051,3.704149 6.879133,2.248948 1.852074,3.902585 5.820804,9.061934 5.820804,9.061934 0,0 -0.198436,-3.96873 -3.108839,-10.781718 9.260372,2.050511 15.874922,2.711966 15.874922,2.711966 0,0 -4.497894,-3.505712 -13.162956,-6.746842 1.389056,-6.085387 -1.852074,-7.408297 -1.852074,-7.408297 1.455201,-2.711966 2.050511,-4.431749 2.050511,-4.431749 0,0 -3.529403,1.425857 -6.592847,3.754274 C 35.521894,28.92664 35.018294,28.769439 34.398246,28.830015 30.773919,18.20526 27.441598,13.559186 27.441598,13.559186 Z"/></svg>