<svg xmlns="http://www.w3.org/2000/svg" width="256" height="256.00098" viewBox="0 0 67.733 67.73326"><path fill="#273339" d="m 34.576014,21.031828 c -1.655167,0.014 -3.016915,1.38747 -3.016857,3.0427 v 0 c 1.59e-4,0.42928 0.120742,0.83735 0.293522,1.22472 -0.366769,-0.19431 -0.764406,-0.33226 -1.203023,-0.33226 h -0.0026 -0.0026 c -1.443655,0.003 -2.640656,1.20215 -2.640653,2.64582 5.8e-5,1.16405 0.773812,2.20238 1.889282,2.53522 0.471456,0.14065 0.98202,0.008 1.325493,-0.34417 0.471456,0.14066 0.982022,0.008 1.325495,-0.34416 0.481391,-0.49374 0.751341,-1.15731 0.75137,-1.84689 0,-0.43532 -0.135513,-0.83055 -0.327108,-1.19528 0.323386,0.0676 0.660355,0.0116 0.94464,-0.15658 0.276224,0.60902 0.963463,0.91614 1.601444,0.71572 1.262641,-0.39692 2.130145,-1.5791 2.130092,-2.90265 0,-1.66477 -1.37793,-3.04269 -3.042694,-3.04269 -0.0047,-3e-5 -0.0092,-3e-5 -0.01394,0 h -5.29e-4 c -0.0038,-3e-5 -0.0076,-3e-5 -0.01138,0 z m -9.569912,1.60403 c -1.32517,0.003 -2.426199,1.10566 -2.426197,2.43085 6.1e-5,1.25473 0.985328,2.32242 2.236031,2.42309 0.487072,0.039 0.955972,-0.1937 1.219556,-0.60512 0.488362,-0.0127 0.930018,-0.29337 1.148762,-0.73019 0.169033,-0.33751 0.257144,-0.70983 0.257345,-1.08728 v 0 c 0,-1.32685 -1.103994,-2.43085 -2.430846,-2.43085 h -0.0021 z m 17.1198,0.67799 c -1.509506,0 -2.761575,1.25206 -2.761575,2.76158 v 0 c 9e-5,0.16904 0.01558,0.33766 0.04651,0.50384 0.115411,0.61939 0.651587,1.07145 1.28157,1.08055 0.07182,0.62558 0.574579,1.11387 1.201988,1.16737 0.07621,0.006 0.15296,0.01 0.229443,0.01 h 0.0021 c 1.509507,0 2.761575,-1.25206 2.761575,-2.76158 0,-1.32495 -0.982496,-2.39891 -2.239128,-2.6546 -0.165046,-0.0709 -0.342809,-0.1075 -0.522447,-0.10748 z m 4.672561,5.01052 c -1.085104,0.009 -2.077048,0.64051 -2.544019,1.62004 -0.291866,0.61232 -0.07336,1.34617 0.505909,1.69912 -0.365993,0.57044 -0.241722,1.32521 0.287837,1.7482 0.503605,0.40195 1.129704,0.62105 1.774043,0.62116 1.555171,0 2.844257,-1.2891 2.844257,-2.84426 0,-1.55519 -1.289086,-2.84426 -2.844257,-2.84426 -0.0062,-2e-5 -0.01243,-2e-5 -0.0186,0 -0.0019,0 -0.0034,0 -0.0052,0 z m -7.053799,0.38034 c -1.408696,8e-5 -2.678084,0.88527 -3.165166,2.20709 -0.218547,0.59407 0.01431,1.2597 0.555519,1.588 -0.410443,0.48217 -0.421709,1.18755 -0.02687,1.68258 0.639387,0.80126 1.611413,1.26901 2.636518,1.26917 1.84742,0 3.373421,-1.526 3.373421,-3.37342 0,-1.84742 -1.526001,-3.37342 -3.373422,-3.37342 z m -17.826214,1.19062 c -1.646496,0 -3.00962,1.3631 -3.00962,3.00962 0,1.6465 1.363124,3.00962 3.00962,3.00962 0.657947,0 1.29841,-0.21563 1.822103,-0.61393 0.516599,-0.3932 0.671591,-1.10313 0.365866,-1.67584 0.586187,-0.2795 0.882855,-0.94313 0.700214,-1.56633 -0.374132,-1.2765 -1.557959,-2.16306 -2.888183,-2.16314 z m 4.332531,5.42393 c -1.15788,0 -2.124903,0.96702 -2.124924,2.12491 -1.9e-5,1.15792 0.967018,2.12494 2.124924,2.12494 1.157908,0 2.124945,-0.96702 2.124924,-2.12494 -1.9e-5,-1.15789 -0.967042,-2.12491 -2.124924,-2.12491 z m 17.445877,3.57186 c -1.007203,0 -1.852074,0.84486 -1.852074,1.85207 0,0.7148 0.435751,1.33236 1.042826,1.63967 -0.02865,0.0911 -0.04737,0.185 -0.05581,0.28009 -0.0074,0.0842 -0.01127,0.16867 -0.01138,0.25323 v 0.003 c -1.3e-5,1.59628 1.322394,2.91868 2.918671,2.91868 1.596279,0 2.918683,-1.3224 2.91867,-2.91868 -1.3e-5,-1.59625 -1.32241,-2.91866 -2.91867,-2.91866 h -0.0011 c -0.113198,8e-5 -0.225622,0.0151 -0.337964,0.0284 -0.285243,-0.66164 -0.948502,-1.13635 -1.703246,-1.13635 z m -19.926333,0.69453 c -1.847418,0 -3.373421,1.526 -3.373421,3.37342 0,1.84742 1.526003,3.37342 3.373421,3.37342 1.847245,0 3.373131,-1.52574 3.37342,-3.37292 v 0 c 1.8e-5,-0.0568 -0.0013,-0.11327 -0.0041,-0.17002 -0.03256,-0.64926 -0.531963,-1.17866 -1.178217,-1.24901 0.199468,-0.61762 -0.07852,-1.28873 -0.656288,-1.5844 -0.47503,-0.24288 -1.000747,-0.36983 -1.534263,-0.36999 z m 9.640706,2.0753 c -0.966123,0 -1.777687,0.81153 -1.77766,1.77767 2.9e-5,0.96607 0.811574,1.77765 1.77766,1.77765 0.146068,0 0.277714,-0.051 0.414444,-0.0858 -0.222712,0.0614 -0.425461,0.18007 -0.588076,0.34417 -0.476088,0.48093 -0.743946,1.1314 -0.744136,1.80815 v 0 c -1.4e-5,1.40448 1.166917,2.57142 2.571406,2.57142 1.404492,0 2.571423,-1.16694 2.571407,-2.57142 v 0 c -2.65e-4,-0.80115 -0.376061,-1.55886 -1.013368,-2.04432 -0.509468,-0.38782 -1.223546,-0.35517 -1.695497,0.0775 -0.272824,-0.18793 -0.606226,-0.26667 -0.934305,-0.22066 0.68596,-0.2481 1.195765,-0.89577 1.195786,-1.65673 2.9e-5,-0.96615 -0.811537,-1.77768 -1.777661,-1.77768 z m 1.653638,5.54797 c 0.02543,0 0.07441,0.049 0.07441,0.0744 v 0 c -3e-6,0.0167 -0.0086,0.0324 -0.01913,0.0455 l -0.05219,0.007 h -0.05116 c -0.01458,-0.0138 -0.02635,-0.0329 -0.02635,-0.0527 v 0 c 0,-0.0254 0.04899,-0.0744 0.07441,-0.0744 z" color="#000" font-family="sans-serif" font-weight="400" overflow="visible" style="line-height:normal;font-variant-ligatures:normal;font-variant-position:normal;font-variant-caps:normal;font-variant-numeric:normal;font-variant-alternates:normal;font-variant-east-asian:normal;font-feature-settings:normal;font-variation-settings:normal;text-indent:0;text-align:start;text-decoration-line:none;text-decoration-style:solid;text-decoration-color:#000;text-transform:none;text-orientation:mixed;white-space:normal;shape-padding:0;shape-margin:0;inline-size:0;isolation:auto;mix-blend-mode:normal;solid-color:#000;solid-opacity:1"/><path fill="#606277" d="m 23.770525,40.908658 a 2.0505108,2.0505108 0 0 0 -2.050511,2.05051 2.0505108,2.0505108 0 0 0 2.050511,2.05052 2.0505108,2.0505108 0 0 0 2.05051,-2.05052 2.0505108,2.0505108 0 0 0 -0.0028,-0.10387 1.2981056,1.2981056 0 0 1 -1.187777,-1.29346 1.2981056,1.2981056 0 0 1 0.07286,-0.42865 2.0505108,2.0505108 0 0 0 -0.932755,-0.22453 z"/><path fill="#606277" d="m 39.744664,30.027728 a 2.0505108,2.0505108 0 0 0 -1.923903,1.34151 1.0996691,1.0996691 0 0 1 0.824234,1.06452 1.0996691,1.0996691 0 0 1 -0.502809,0.92347 2.0505108,2.0505108 0 0 0 1.602478,0.77152 2.0505108,2.0505108 0 0 0 2.050511,-2.05051 2.0505108,2.0505108 0 0 0 -2.050511,-2.05051 z"/><path fill="#606277" d="m 21.91845,31.218348 a 1.6867105,1.6867105 0 0 0 -1.68671,1.68671 1.6867105,1.6867105 0 0 0 1.68671,1.68671 1.6867105,1.6867105 0 0 0 1.021123,-0.34417 1.0996691,1.0996691 0 0 1 -0.285254,-0.73898 1.0996691,1.0996691 0 0 1 0.88263,-1.07796 1.6867105,1.6867105 0 0 0 -1.618499,-1.21231 z"/><path fill="#606277" d="m 30.647074,26.290508 a 1.3229102,1.3229102 0 0 0 -1.320328,1.32291 1.3229102,1.3229102 0 0 0 0.944384,1.26761 0.81855067,0.81855067 0 0 1 0.7754,-0.55655 0.81855067,0.81855067 0 0 1 0.550351,0.21238 1.3229102,1.3229102 0 0 0 0.375686,-0.92344 1.3229102,1.3229102 0 0 0 -1.322911,-1.32291 1.3229102,1.3229102 0 0 0 -0.0026,0 z"/><path fill="#606277" d="m 25.008943,23.958878 a 1.1079373,1.1079373 0 0 0 -1.106127,1.10794 1.1079373,1.1079373 0 0 0 1.019053,1.10431 0.7937461,0.7937461 0 0 1 0.783412,-0.66611 0.7937461,0.7937461 0 0 1 0.296363,0.0574 1.1079373,1.1079373 0 0 0 0.117046,-0.49557 1.1079373,1.1079373 0 0 0 -1.107937,-1.10793 1.1079373,1.1079373 0 0 0 -0.0019,0 z"/><path fill="#606277" d="m 34.58764,22.354848 a 1.7197832,1.7197832 0 0 0 -1.705573,1.71978 1.7197832,1.7197832 0 0 0 0.356826,1.04851 1.0996691,1.0996691 0 0 1 0.792453,-0.33744 1.0996691,1.0996691 0 0 1 1.086233,0.92939 1.7197832,1.7197832 0 0 0 1.204055,-1.64046 1.7197832,1.7197832 0 0 0 -1.719783,-1.71978 1.7197832,1.7197832 0 0 0 -0.01421,0 z"/><path fill="#606277" d="m 42.125902,24.636868 a 1.4386648,1.4386648 0 0 0 -1.438665,1.43866 1.4386648,1.4386648 0 0 0 0.02429,0.26226 1.0996691,1.0996691 0 0 1 0.198952,-0.0183 1.0996691,1.0996691 0 0 1 1.09967,1.09965 1.0996691,1.0996691 0 0 1 -0.0036,0.0902 1.4386648,1.4386648 0 0 0 0.119372,0.005 1.4386648,1.4386648 0 0 0 1.438665,-1.43866 1.4386648,1.4386648 0 0 0 -1.438671,-1.43867 z"/><path fill="#606277" d="m 46.809057,29.647388 a 1.5213467,1.5213467 0 0 0 -1.360118,0.86661 1.0996691,1.0996691 0 0 1 0.765584,1.04748 1.0996691,1.0996691 0 0 1 -0.341322,0.79632 1.5213467,1.5213467 0 0 0 0.949032,0.33228 1.5213467,1.5213467 0 0 0 1.521347,-1.52134 1.5213467,1.5213467 0 0 0 -1.521347,-1.52135 1.5213467,1.5213467 0 0 0 -0.01318,0 z"/><path fill="#606277" d="m 45.739101,41.322068 a 1.5957604,1.5957604 0 0 0 -0.264323,0.022 1.0996691,1.0996691 0 0 1 0.06589,0.37492 1.0996691,1.0996691 0 0 1 -1.099669,1.09965 1.0996691,1.0996691 0 0 1 -0.291453,-0.0395 1.5957604,1.5957604 0 0 0 -0.0062,0.13872 1.5957604,1.5957604 0 0 0 1.595761,1.59578 1.5957604,1.5957604 0 0 0 1.59576,-1.59578 1.5957604,1.5957604 0 0 0 -1.59576,-1.59574 z"/><circle cx="43.696861" cy="40.743309" r="0.52916408" fill="#606277"/><path fill="#606277" d="m 35.821666,46.290738 a 1.0996691,1.0996691 0 0 1 -0.872551,0.43045 1.0996691,1.0996691 0 0 1 -0.771268,-0.31599 1.2484965,1.2484965 0 0 0 -0.361474,0.87822 1.2484965,1.2484965 0 0 0 1.248496,1.24851 1.2484965,1.2484965 0 0 0 1.248497,-1.24851 1.2484965,1.2484965 0 0 0 -0.4917,-0.99268 z"/><circle cx="33.411232" cy="43.438736" r="0.45475036" fill="#606277"/><circle cx="26.25098" cy="37.444305" r="0.80201429" fill="#606277"/></svg>