<svg xmlns="http://www.w3.org/2000/svg" width="256" height="256.00098" viewBox="0 0 67.733 67.73326"><path fill="#273339" d="m 34.702103,20.704969 c -1.3945,0.004 -2.551203,1.163579 -2.551769,2.55798 v 0 0 c -6.1e-5,0.204363 0.02447,0.408091 0.07286,0.60666 0.203003,0.831369 1.129945,1.254172 1.89083,0.862484 0.273681,0.810283 1.232662,1.151885 1.956979,0.697121 0.743449,-0.467358 1.197276,-1.288144 1.197337,-2.166265 8e-6,-1.397655 -1.16137,-2.559011 -2.559006,-2.559011 h -0.0031 -5.29e-4 c -0.0013,0 -0.0024,0 -0.0036,0 z m -10.158501,1.843793 c -1.093978,0 -2.009191,0.91519 -2.00917,2.009183 -1.9e-5,0.933128 0.659822,1.756825 1.57044,1.96058 0.691982,0.154543 1.382772,-0.263894 1.566304,-0.948765 0.66091,-0.256406 1.002286,-0.988161 0.774109,-1.659326 -0.275581,-0.809436 -1.046626,-1.361566 -1.901683,-1.361672 z m 17.846882,0.764828 c -1.118531,-8e-5 -2.099757,0.799778 -2.324911,1.895465 -0.179022,0.873227 0.539189,1.670043 1.426264,1.582334 0.09528,0.886032 1.021474,1.426388 1.83967,1.073303 0.865647,-0.374039 1.43181,-1.235148 1.431947,-2.178146 -1.6e-5,-1.294705 -1.077812,-2.372665 -2.372451,-2.372956 z M 30.45277,25.025091 c -1.216246,0.0082 -2.225738,1.024409 -2.225693,2.240694 -1.45e-4,0.736649 0.364438,1.429616 0.971514,1.846888 0.576762,0.396291 1.362378,0.274927 1.792646,-0.276965 0.675124,0.183118 1.376139,-0.190922 1.599893,-0.8537 0.07775,-0.230715 0.117358,-0.472755 0.117305,-0.716223 1.9e-5,-1.221841 -1.018841,-2.240694 -2.240679,-2.240694 h -0.0057 -5.29e-4 c -0.0029,0 -0.0058,0 -0.0088,0 z m 17.048489,3.315558 c -0.753405,0.005 -1.462173,0.372241 -1.900649,0.984933 -0.467437,0.653624 -0.249045,1.569607 0.463019,1.942006 -0.268932,0.757895 0.194867,1.578417 0.98288,1.738886 0.155111,0.03151 0.313006,0.04718 0.471287,0.04704 1.285297,0 2.355417,-1.071029 2.355399,-2.356447 -1.6e-5,-1.285737 -1.070692,-2.356421 -2.356434,-2.356421 -0.0037,-2.6e-5 -0.0071,-2.6e-5 -0.01085,0 -0.0016,0 -0.0031,0 -0.0047,0 z m -7.24655,0.735856 c -0.80044,0.0058 -1.557486,0.37433 -2.056196,1.000464 -0.535668,0.672541 -0.297581,1.66938 0.484206,2.027254 -0.541287,0.66836 -0.311035,1.667369 0.468186,2.031381 0.351595,0.1642 0.734879,0.249078 1.122923,0.249078 1.450134,0 2.654075,-1.203954 2.654089,-2.654076 1.5e-5,-1.450174 -1.203936,-2.654101 -2.654089,-2.654101 -0.0046,0 -0.0093,-2.7e-5 -0.01394,0 -0.0019,0 -0.0034,0 -0.0052,0 z M 20.888544,30.69707 c -1.257355,0.01799 -2.294043,1.070022 -2.293905,2.327501 -8e-6,1.269782 1.057719,2.327502 2.327496,2.327502 h 5.29e-4 c 0.451451,-1.06e-4 0.893168,-0.13155 1.271235,-0.378273 0.582488,-0.380046 0.771262,-1.146222 0.432012,-1.753385 0.467953,-0.514083 0.458246,-1.302617 -0.02222,-1.805032 -0.4385,-0.458282 -1.046763,-0.718128 -1.681027,-0.718313 -0.0082,-2.7e-5 -0.01609,-5.3e-5 -0.02429,0 -0.0033,0 -0.0065,0 -0.0098,0 z m 4.996571,4.952658 c -1.029307,0.01455 -1.88316,0.880529 -1.883081,1.909938 -2.4e-5,1.039199 0.870768,1.909965 1.909951,1.909965 0.425374,1.06e-4 0.839095,-0.142081 1.174601,-0.403594 0.441177,-0.344221 0.618093,-0.928762 0.441831,-1.459857 0.206403,-0.519983 0.06343,-1.1136 -0.357083,-1.482586 -0.348113,-0.305327 -0.796306,-0.47384 -1.259349,-0.473866 -0.0059,-2.7e-5 -0.01169,-5.3e-5 -0.01757,0 -0.0031,0 -0.0062,0 -0.0093,0 z m -2.769844,4.481358 c -1.443223,0.01005 -2.635507,1.210807 -2.635485,2.654075 -1.4e-5,1.450148 1.203935,2.654102 2.654088,2.654102 0.964621,1.06e-4 1.85857,-0.527841 2.324396,-1.372519 0.390438,-0.709107 0.05825,-1.599425 -0.701246,-1.879485 0.395764,-0.705879 0.07073,-1.598499 -0.68626,-1.884618 -0.155603,-0.05874 -0.32362,-0.0603 -0.486791,-0.08887 -0.149952,-0.05567 -0.308754,-0.08369 -0.468702,-0.08268 z m 23.301821,0.786497 c -0.357934,0 -0.700978,0.143165 -0.950842,0.399465 h -5.29e-4 c -0.197402,0.202512 -0.324721,0.46294 -0.363284,0.743106 -0.753244,0.08887 -1.277738,0.791497 -1.14876,1.538915 0.189502,1.097327 1.159674,1.913959 2.273234,1.914092 1.258169,0 2.306517,-1.048195 2.306824,-2.306309 v 0 c 7.4e-5,-1.097116 -0.792383,-2.057469 -1.869642,-2.265484 -0.08141,-0.01561 -0.164113,-0.02355 -0.247014,-0.02381 z m -10.554857,5.099924 c -0.35899,0.0037 -0.701076,0.153087 -0.947744,0.413939 -0.821141,-0.267916 -1.674621,0.310063 -1.730633,1.171992 -0.0029,0.04474 -0.0042,0.08956 -0.0041,0.134381 v 0 c 2.65e-4,1.125691 0.941293,2.066545 2.067047,2.066545 1.125929,0 2.067047,-0.941118 2.067047,-2.067047 v -0.0026 C 37.313295,47.343804 37.201769,46.960954 36.9924,46.630888 36.747307,46.244386 36.319877,46.012004 35.862243,46.016449 Z" color="#000" font-family="sans-serif" font-weight="400" overflow="visible" style="line-height:normal;font-variant-ligatures:normal;font-variant-position:normal;font-variant-caps:normal;font-variant-numeric:normal;font-variant-alternates:normal;font-variant-east-asian:normal;font-feature-settings:normal;font-variation-settings:normal;text-indent:0;text-align:start;text-decoration-line:none;text-decoration-style:solid;text-decoration-color:#000;text-transform:none;text-orientation:mixed;white-space:normal;shape-padding:0;shape-margin:0;inline-size:0;isolation:auto;mix-blend-mode:normal;solid-color:#000;solid-opacity:1"/><path fill="#606277" d="m 34.705977,22.027986 a 1.2360942,1.2360942 0 0 0 -1.232733,1.2361 1.2360942,1.2360942 0 0 0 0.0354,0.293528 1.0500599,1.0500599 0 0 1 0.812092,-0.384491 1.0500599,1.0500599 0 0 1 1.05006,1.050073 1.0500599,1.0500599 0 0 1 -0.0036,0.08734 1.2360942,1.2360942 0 0 0 0.578257,-1.046449 1.2360942,1.2360942 0 0 0 -1.236095,-1.2361 1.2360942,1.2360942 0 0 0 -0.0034,0 z"/><path fill="#606277" d="m 30.461814,26.348107 a 0.91776893,0.91776893 0 0 0 -0.911827,0.917783 0.91776893,0.91776893 0 0 0 0.397908,0.756282 0.78547791,0.78547791 0 0 1 0.784443,-0.748027 0.78547791,0.78547791 0 0 1 0.605129,0.285008 0.91776893,0.91776893 0 0 0 0.04806,-0.293263 0.91776893,0.91776893 0 0 0 -0.917769,-0.917783 0.91776893,0.91776893 0 0 0 -0.0059,0 z"/><path fill="#606277" d="m 24.543602,23.871805 a 0.68625965,0.68625965 0 0 0 -0.68626,0.686246 0.68625965,0.68625965 0 0 0 0.536654,0.669737 0.72760059,0.72760059 0 0 1 -0.0199,-0.169518 0.72760059,0.72760059 0 0 1 0.7276,-0.727601 0.72760059,0.72760059 0 0 1 0.09147,0.0061 0.68625965,0.68625965 0 0 0 -0.64957,-0.464818 z"/><path fill="#606277" d="m 20.907665,32.020086 a 1.0045849,1.0045849 0 0 0 -0.990116,1.004591 1.0045849,1.0045849 0 0 0 1.004586,1.004592 1.0045849,1.0045849 0 0 0 0.548801,-0.1633 0.84335523,0.84335523 0 0 1 -0.420645,-0.729665 0.84335523,0.84335523 0 0 1 0.597119,-0.806419 1.0045849,1.0045849 0 0 0 -0.725275,-0.309799 1.0045849,1.0045849 0 0 0 -0.01447,0 z"/><path fill="#606277" d="m 23.124831,41.454102 a 1.3311784,1.3311784 0 0 0 -1.322135,1.331165 1.3311784,1.3311784 0 0 0 1.331178,1.331192 1.3311784,1.3311784 0 0 0 1.165815,-0.688337 1.0500599,1.0500599 0 0 1 -0.06615,0.0026 1.0500599,1.0500599 0 0 1 -1.05006,-1.050047 1.0500599,1.0500599 0 0 1 0.420387,-0.840259 1.3311784,1.3311784 0 0 0 -0.469996,-0.08578 1.3311784,1.3311784 0 0 0 -0.009,0 z"/><path fill="#606277" d="m 25.903717,36.972744 a 0.58704139,0.58704139 0 0 0 -0.578773,0.587028 0.58704139,0.58704139 0 0 0 0.587041,0.587055 0.58704139,0.58704139 0 0 0 0.361218,-0.124301 0.66972327,0.66972327 0 0 1 -0.162781,-0.437936 0.66972327,0.66972327 0 0 1 0.188877,-0.466114 0.58704139,0.58704139 0 0 0 -0.387314,-0.145732 0.58704139,0.58704139 0 0 0 -0.0083,0 z"/><path fill="#606277" d="m 40.264785,30.399521 a 1.3311784,1.3311784 0 0 0 -1.031714,0.501515 1.182351,1.182351 0 0 1 0.883661,1.143867 1.182351,1.182351 0 0 1 -0.406173,0.891668 1.3311784,1.3311784 0 0 0 0.563269,0.125306 1.3311784,1.3311784 0 0 0 1.331178,-1.331165 1.3311784,1.3311784 0 0 0 -1.331178,-1.331191 1.3311784,1.3311784 0 0 0 -0.009,0 z"/><path fill="#606277" d="m 47.510043,29.663665 a 1.0335236,1.0335236 0 0 0 -0.833536,0.431771 1.0500599,1.0500599 0 0 1 0.81545,1.02343 1.0500599,1.0500599 0 0 1 -0.182157,0.590918 1.0335236,1.0335236 0 0 0 0.206961,0.0209 1.0335236,1.0335236 0 0 0 1.033524,-1.033537 1.0335236,1.0335236 0 0 0 -1.033524,-1.03351 1.0335236,1.0335236 0 0 0 -0.0067,0 z"/><path fill="#606277" d="m 42.390484,24.636606 a 1.0500599,1.0500599 0 0 0 -1.028615,0.838698 1.0500599,1.0500599 0 0 1 0.416769,-0.08631 1.0500599,1.0500599 0 0 1 1.05006,1.050073 1.0500599,1.0500599 0 0 1 -0.02146,0.211349 1.0500599,1.0500599 0 0 0 0.63329,-0.963768 1.0500599,1.0500599 0 0 0 -1.05006,-1.050046 z"/><path fill="#606277" d="m 46.413216,42.240863 a 1.0500599,1.0500599 0 0 1 0.0039,0.08967 1.0500599,1.0500599 0 0 1 -1.05006,1.050047 1.0500599,1.0500599 0 0 1 -0.109552,-0.0061 0.98391444,0.98391444 0 0 0 0.969444,0.816236 0.98391444,0.98391444 0 0 0 0.983914,-0.983901 0.98391444,0.98391444 0 0 0 -0.797622,-0.966095 z"/><path fill="#606277" d="m 35.875411,47.34002 a 1.0500599,1.0500599 0 0 1 -0.876687,0.472306 1.0500599,1.0500599 0 0 1 -0.494541,-0.123745 0.74413697,0.74413697 0 0 0 -0.0016,0.04934 0.74413697,0.74413697 0 0 0 0.744137,0.744137 0.74413697,0.74413697 0 0 0 0.744137,-0.744137 0.74413697,0.74413697 0 0 0 -0.115498,-0.397905 z"/></svg>