<svg xmlns="http://www.w3.org/2000/svg" width="256" height="256.00098" viewBox="0 0 67.733 67.73326"><path fill="#273339" d="m 31.157111,18.618288 c -1.89403,0.0119 -3.45097,1.57855 -3.45093,3.47264 -6e-5,0.55708 0.13396,1.10648 0.39067,1.60091 0.0238,0.0456 0.0502,0.0898 0.0791,0.13229 -0.52078,-0.27355 -1.10272,-0.44336 -1.7265,-0.44336 -2.0666,0 -3.77029,1.70367 -3.77029,3.77029 0,0.19664 0.0287,0.38621 0.0584,0.57515 -0.45665,-0.274 -0.95671,-0.46762 -1.49706,-0.46767 -1.6191,0 -2.96002,1.3409 -2.96002,2.96001 0,1.0859 0.62996,2.00781 1.51567,2.52284 -0.006,0.0883 -0.0274,0.17476 -0.0274,0.26355 0,2.28578 1.88137,4.16717 4.16717,4.16717 0.47984,0 0.93475,-0.099 1.36528,-0.25117 0.0268,1.64266 1.38505,2.99621 3.03339,2.99621 1.66476,0 3.04269,-1.37795 3.04269,-3.0427 0,-1.66477 -1.37793,-3.04269 -3.04269,-3.04269 -0.11869,0 -0.22051,0.0551 -0.33589,0.0687 0.0647,-0.28959 0.10438,-0.58766 0.10438,-0.89553 0,-0.82103 -0.24962,-1.58524 -0.66662,-2.23344 0.20654,-0.0572 0.40676,-0.12637 0.59789,-0.21654 0.41857,1.62469 1.89381,2.84685 3.64059,2.84685 0.22952,0 0.45255,-0.028 0.67127,-0.0682 -0.10297,0.39455 -0.17518,0.8006 -0.17518,1.22578 0,0.93969 0.28151,1.81244 0.74466,2.56261 -0.63918,0.0418 -1.1566,0.53552 -1.22835,1.17202 -0.0191,0.17079 -0.0288,0.34232 -0.0289,0.51419 v 0 c 0,1.12678 0.42345,2.15158 1.09812,2.96104 -1.22948,0.7116 -2.07376,2.02747 -2.07376,3.53776 10e-6,1.26864 0.61381,2.43061 1.59524,3.2008 0.40316,1.33942 1.60257,2.33891 3.05148,2.33888 1.77436,0 3.24113,-1.46679 3.24113,-3.24113 v 0 c -10e-5,-0.19595 -0.0821,-0.37819 -0.11731,-0.56999 0.25586,-0.54366 0.43131,-1.12177 0.4315,-1.72753 v 0 c 0,-0.82634 -0.25333,-1.59686 -0.68109,-2.24379 0.52721,-0.2358 1.0076,-0.56075 1.41128,-0.9648 0.41461,1.88055 2.10094,3.30781 4.09843,3.30781 2.30406,0 4.20024,-1.89618 4.20024,-4.20024 -6e-5,-2.00768 -1.44481,-3.7042 -3.35998,-4.09999 -0.57704,-0.58034 -1.36042,-0.92675 -2.19572,-0.92707 h -5.3e-4 c -0.24287,0 -0.45964,0.0864 -0.68729,0.14054 0.11886,-0.30834 0.20947,-0.62372 0.26458,-0.95239 0.68176,0.57957 1.55089,0.94414 2.50629,0.94414 0.46681,0 0.90998,-0.0972 1.32653,-0.25064 -0.14452,0.66167 0.23397,1.32564 0.87695,1.53839 0.30266,0.1 0.61969,0.15086 0.93843,0.15091 1.63737,0 2.99309,-1.35571 2.99309,-2.99308 0,-1.3867 -0.99124,-2.51766 -2.28357,-2.84788 -0.25104,-1.9052 -1.8827,-3.40287 -3.85143,-3.40287 -0.01,-3e-5 -0.0189,-5e-5 -0.0284,0 -0.002,0 -0.004,0 -0.006,0 -0.11337,0 -0.22026,0.0259 -0.33124,0.0367 0.0405,-0.21653 0.0682,-0.43762 0.0682,-0.66505 0,-2.01183 -1.65927,-3.67108 -3.67108,-3.67108 -0.71087,0 -1.37266,0.21534 -1.93786,0.57205 -0.56141,-1.55635 -2.04447,-2.68871 -3.78372,-2.68871 -0.0339,0 -0.0655,0.01 -0.0992,0.0103 1e-5,-0.003 -10e-6,-0.005 0,-0.007 0,0 0,-0.003 0,-0.003 0,-1.90223 -1.57043,-3.47263 -3.47264,-3.47263 -0.006,-3e-5 -0.0117,-3e-5 -0.0176,0 -0.001,0 -0.003,0 -0.004,0 z m 0.15348,3.35689 c 0.35221,8e-5 0.64404,0.22976 0.72709,0.57205 0.0394,0.16177 0.10902,0.31467 0.20515,0.45061 -0.88962,0.71662 -1.4748,1.78947 -1.51411,3.00031 -0.22133,0.0585 -0.43479,0.13324 -0.63872,0.22944 -0.18757,-0.72805 -0.58615,-1.36931 -1.13016,-1.86085 0.92567,0.22375 1.77745,-0.57431 1.61437,-1.51257 -0.007,-0.0428 -0.0114,-0.0863 -0.0114,-0.1297 v 0 c 0,-0.42875 0.31909,-0.748 0.74775,-0.74826 z m 3.44008,2.76157 c 0.78283,0 1.38906,0.60621 1.38906,1.38906 0,0.78282 -0.60623,1.38905 -1.38906,1.38905 h -5.2e-4 c -0.14011,3e-5 -0.27912,-0.0209 -0.4129,-0.0625 -0.23951,-0.0745 -0.49526,-0.0793 -0.73742,-0.014 0.0335,-0.24907 -0.005,-0.50252 -0.11007,-0.73069 -0.0843,-0.18241 -0.12803,-0.38095 -0.12815,-0.58187 v 0 c 2.6e-4,-0.78255 0.60641,-1.38853 1.38905,-1.38853 z m -8.30126,1.28984 c 0.6367,0 1.12448,0.48776 1.12448,1.12447 0,0.63669 -0.48778,1.12448 -1.12448,1.12448 -0.63669,0 -1.12447,-0.48779 -1.12447,-1.12448 0,-0.63671 0.48778,-1.12447 1.12447,-1.12447 z m 14.02285,0.82682 c 0.5819,0 1.02526,0.44333 1.02526,1.02525 0,0.5819 -0.44336,1.02526 -1.02526,1.02526 -0.5819,0 -1.02525,-0.44336 -1.02525,-1.02526 0,-0.58192 0.44335,-1.02525 1.02525,-1.02525 z m -8.79787,1.65364 c 0.0952,2e-5 0.19004,0.0122 0.28216,0.0362 0.22198,0.0574 0.45508,0.0562 0.67644,-0.004 -0.0306,0.22727 -0.002,0.4586 0.0842,0.67127 0.0541,0.13377 0.0821,0.27688 0.0822,0.42116 -2.7e-4,0.63645 -0.48796,1.12397 -1.12448,1.12397 -0.63669,0 -1.12447,-0.48778 -1.12447,-1.12447 0,-0.63653 0.48752,-1.12421 1.12396,-1.12448 z m 5.45184,0.85626 c 0.0449,0.0999 0.10321,0.1918 0.15658,0.28681 -0.0624,-0.003 -0.12103,-0.0185 -0.18397,-0.0185 -0.16815,0 -0.32745,0.0334 -0.49144,0.0501 0.18066,-0.0954 0.35536,-0.19759 0.51883,-0.31832 z m 7.30391,1.78956 c 0.002,0 0.004,-3e-5 0.005,0 0.002,0 0.004,0 0.006,0 0.70976,0 1.25677,0.54699 1.25677,1.25676 0,0.70974 -0.54701,1.25677 -1.25677,1.25677 -0.70976,0 -1.25676,-0.54703 -1.25676,-1.25677 -3e-5,-0.70503 0.5409,-1.25057 1.24591,-1.25676 z m -20.49426,0.33072 c 0.85589,0 1.52135,0.66545 1.52135,1.52135 0,0.85587 -0.66546,1.52135 -1.52135,1.52135 -0.85588,0 -1.52134,-0.66548 -1.52134,-1.52135 0,-0.21235 0.0442,-0.42238 0.13022,-0.6165 0.008,-0.0175 0.0152,-0.0353 0.0222,-0.0532 0.0104,-0.0172 0.0204,-0.0346 0.03,-0.0522 0.26659,-0.49445 0.77719,-0.79936 1.33893,-0.79941 z m 13.16296,0.79375 c 1.27599,0 2.28202,1.00602 2.28202,2.28202 -4e-5,0.69694 -0.31674,1.35294 -0.86247,1.78643 -0.0368,0.0293 -0.072,0.0605 -0.10542,0.0935 -0.0419,0.0196 -0.0828,0.0416 -0.12248,0.0656 -0.35882,0.2199 -0.77081,0.33634 -1.19165,0.33642 -1.27599,0 -2.28202,-1.00605 -2.28202,-2.28202 0,-1.276 1.00603,-2.28202 2.28202,-2.28202 z m -8.76428,4.20024 c 0.23486,0 0.39687,0.162 0.39687,0.39687 0,0.23485 -0.16201,0.39688 -0.39687,0.39688 -0.23486,0 -0.39687,-0.16203 -0.39687,-0.39688 0,-0.23487 0.16201,-0.39687 0.39687,-0.39687 z m -9.6128,1.19887 c -1.44366,0.003 -2.64066,1.20216 -2.64065,2.64582 0,1.44557 1.20024,2.64582 2.64582,2.64582 0.46737,1.1e-4 0.92663,-0.12366 1.33066,-0.35864 0.98694,-0.57496 0.8305,-2.04627 -0.25528,-2.40087 0.9878,-0.57456 0.8316,-2.04686 -0.25476,-2.4014 -0.13349,-0.0435 -0.27515,-0.0438 -0.41341,-0.0656 -0.13315,-0.0434 -0.27234,-0.0654 -0.41238,-0.0651 z m 15.71731,1.01285 c 0.72716,0.47164 1.58294,0.75155 2.50061,0.78187 -0.27098,0.18282 -0.58146,0.31369 -0.94051,0.31369 -0.72427,-6e-5 -1.31584,-0.45035 -1.5601,-1.09556 z m 7.91782,0.13645 h 5.3e-4 c 0.16021,2.1e-4 0.30499,0.0801 0.39068,0.21547 0.22922,0.36203 0.61958,0.59063 1.04747,0.61341 0.83852,0.0445 1.47223,0.71265 1.47225,1.55235 0,0.87416 -0.68026,1.55442 -1.55442,1.55442 -0.87397,0 -1.55414,-0.68003 -1.55442,-1.55391 v 0 c 1.3e-4,-0.14862 0.0215,-0.29623 0.0636,-0.43873 0.12146,-0.41119 0.0361,-0.85571 -0.22892,-1.19271 -0.0644,-0.0818 -0.0992,-0.18217 -0.0992,-0.28628 v 0 c 0,-0.27122 0.1914,-0.46278 0.4625,-0.46302 z m -7.57314,5.02705 c 0.81917,0 1.45492,0.63558 1.4552,1.45468 -9e-5,0.2881 -0.0858,0.5693 -0.24598,0.80872 -0.007,0.01 -0.0129,0.0196 -0.0191,0.0295 -0.004,0.005 -0.008,0.0106 -0.0114,0.0161 -0.2744,0.37896 -0.71086,0.6015 -1.17873,0.60152 -0.22124,-2e-5 -0.43939,-0.0502 -0.6382,-0.14729 -0.0147,-0.007 -0.0295,-0.0143 -0.0444,-0.0212 h -5.3e-4 c -0.0113,-0.007 -0.0226,-0.014 -0.0341,-0.0206 -0.4581,-0.25939 -0.73793,-0.73961 -0.73794,-1.26605 0,-0.81936 0.63585,-1.4552 1.4552,-1.4552 z" color="#000" font-family="sans-serif" font-weight="400" overflow="visible" style="line-height:normal;font-variant-ligatures:normal;font-variant-position:normal;font-variant-caps:normal;font-variant-numeric:normal;font-variant-alternates:normal;font-variant-east-asian:normal;font-feature-settings:normal;font-variation-settings:normal;text-indent:0;text-align:start;text-decoration-line:none;text-decoration-style:solid;text-decoration-color:#000;text-transform:none;text-orientation:mixed;white-space:normal;shape-padding:0;shape-margin:0;inline-size:0;isolation:auto;mix-blend-mode:normal;solid-color:#000;solid-opacity:1"/><circle cx="37.098839" cy="34.559479" r="3.6049302" fill="#606277"/><circle cx="44.441002" cy="32.409744" r="2.5796747" fill="#606277"/><circle cx="40.472267" cy="27.878784" r="2.3481655" fill="#606277"/><circle cx="34.750679" cy="26.125931" r="2.7119658" fill="#606277"/><circle cx="31.674904" cy="29.631638" r="2.4473839" fill="#606277"/><circle cx="26.449409" cy="27.151184" r="2.4473839" fill="#606277"/><circle cx="28.334557" cy="36.874573" r="1.7197832" fill="#606277"/><circle cx="23.93589" cy="33.005051" r="2.8442569" fill="#606277"/><circle cx="34.783745" cy="45.308121" r="2.7781115" fill="#606277"/><circle cx="43.713402" cy="41.207092" r="2.8773296" fill="#606277"/><circle cx="42.357414" cy="39.288879" r="1.7859287" fill="#606277"/><path fill="#ffe400" d="m 31.165381,19.941308 a 2.149729,2.149729 0 0 0 -2.13629,2.14973 2.149729,2.149729 0 0 0 0.2421,0.99088 2.0711812,2.0711812 0 0 1 -0.0313,-0.35837 2.0711812,2.0711812 0 0 1 2.07118,-2.07118 2.0711812,2.0711812 0 0 1 2.01253,1.58284 2.149729,2.149729 0 0 0 0.005,-0.14417 2.149729,2.149729 0 0 0 -2.14973,-2.14973 2.149729,2.149729 0 0 0 -0.0134,0 z"/><path fill="#ffe400" d="m 21.240461,28.581578 a 1.6371013,1.6371013 0 0 0 -1.63711,1.6371 1.6371013,1.6371013 0 0 0 1.63711,1.6371 1.6371013,1.6371013 0 0 0 0.7263,-0.17005 1.3973239,1.3973239 0 0 1 -0.18887,0.013 1.3973239,1.3973239 0 0 1 -1.39733,-1.39731 1.3973239,1.3973239 0 0 1 1.39733,-1.39733 1.3973239,1.3973239 0 0 1 0.59634,0.13358 1.6371013,1.6371013 0 0 0 -1.13377,-0.45603 z"/><path fill="#ffe400" d="m 18.724341,38.999498 a 1.3229102,1.3229102 0 0 0 -1.32032,1.32291 1.3229102,1.3229102 0 0 0 1.32291,1.32291 1.3229102,1.3229102 0 0 0 0.66559,-0.17957 1.2071555,1.2071555 0 0 1 -0.11989,0.006 1.2071555,1.2071555 0 0 1 -1.20716,-1.20716 1.2071555,1.2071555 0 0 1 1.07254,-1.19967 1.3229102,1.3229102 0 0 0 -0.41108,-0.0654 1.3229102,1.3229102 0 0 0 -0.003,0 z"/><path fill="#ffe400" d="m 38.255351,36.085708 a 3.0178888,3.0178888 0 0 1 0.76171,2.00429 3.0178888,3.0178888 0 0 1 -3.01789,3.01787 3.0178888,3.0178888 0 0 1 -2.99722,-2.66701 3.3403482,3.3403482 0 0 0 -0.0207,0.36845 3.3403482,3.3403482 0 0 0 3.34035,3.34035 3.3403482,3.3403482 0 0 0 3.34035,-3.34035 3.3403482,3.3403482 0 0 0 -1.40662,-2.7236 z"/><path fill="#ffe400" d="m 47.568181,33.087728 a 1.6701741,1.6701741 0 0 0 -0.33022,0.0362 1.6205651,1.6205651 0 0 1 1.3702,1.60093 1.6205651,1.6205651 0 0 1 -1.54848,1.61903 1.6701741,1.6701741 0 0 0 0.52322,0.0842 1.6701741,1.6701741 0 0 0 1.67018,-1.67017 1.6701741,1.6701741 0 0 0 -1.67018,-1.67018 1.6701741,1.6701741 0 0 0 -0.0147,0 z"/><path fill="#ffe400" d="m 37.048201,46.755318 a 1.9182197,1.9182197 0 0 1 -1.91719,1.86007 1.9182197,1.9182197 0 0 1 -1.71875,-1.06688 1.9182197,1.9182197 0 0 0 -10e-4,0.0581 1.9182197,1.9182197 0 0 0 1.91822,1.91822 1.9182197,1.9182197 0 0 0 1.91822,-1.91822 1.9182197,1.9182197 0 0 0 -0.19947,-0.85134 z"/></svg>