<svg xmlns="http://www.w3.org/2000/svg" width="256" height="256.00098" viewBox="0 0 67.733 67.73326"><path fill="#273339" d="m 30.057965,25.135423 c -0.728817,0.01617 -1.307231,0.618847 -1.293457,1.347716 l 0.0708,3.713967 c -0.575735,0.816315 -0.905331,1.88239 -0.931204,3.136744 -0.36361,0.675174 -0.460828,1.414898 -0.406692,2.173499 0.03179,0.445472 0.127695,0.903789 0.293004,1.349265 l -1.802464,1.107938 c -1.139867,0.701076 -0.637458,2.457655 0.700728,2.449968 l 4.710801,-0.0279 c 1.039911,1.223454 2.570759,1.827095 4.043145,1.866026 1.380872,0.03651 2.821322,-0.409391 3.780112,-1.444348 l 2.732119,0.570505 c 1.187958,0.247532 2.054633,-1.101265 1.33583,-2.078933 l -1.379756,-1.875846 c 0.596231,-0.814006 0.924691,-1.738754 0.959629,-2.644786 0.04908,-1.272772 -0.399903,-2.474893 -1.14101,-3.434399 -0.741111,-0.959512 -1.792412,-1.700437 -3.039596,-1.987988 -0.884527,-0.203937 -1.863898,-0.138712 -2.812734,0.208256 -0.328206,-0.305495 -0.706053,-0.551289 -1.103805,-0.737936 -0.566589,-0.265875 -1.197244,-0.386096 -1.844322,-0.43253 l -1.733219,-2.659257 c -0.250006,-0.383335 -0.680367,-0.610243 -1.137909,-0.599961 z m 1.419028,5.658027 c 0.247249,0.157228 0.5397,0.227932 0.831467,0.201019 0.4609,-0.04291 0.972025,0.05475 1.340997,0.227892 0.368976,0.173143 0.549199,0.405305 0.578774,0.482656 0.302383,0.790899 1.259566,1.098135 1.965762,0.630967 0.72005,-0.476578 1.321683,-0.534614 1.901168,-0.401008 0.579485,0.133606 1.142338,0.511868 1.540465,1.027322 0.39813,0.515456 0.613185,1.143904 0.591177,1.714616 -0.02201,0.570711 -0.226898,1.107249 -0.873846,1.654672 -0.515295,0.436362 -0.619307,1.190746 -0.241328,1.750271 l -0.159162,-0.03307 c -0.592796,-0.123663 -1.193884,0.170923 -1.459334,0.7152 -0.223577,0.458695 -0.993328,0.86998 -1.980748,0.843871 -0.98742,-0.02611 -1.933433,-0.479277 -2.348166,-1.204571 -0.236978,-0.41429 -0.678724,-0.668834 -1.155996,-0.666106 l -1.185967,0.0072 c 0.154915,-0.451321 0.0548,-0.951096 -0.262,-1.307924 -0.22694,-0.255486 -0.393431,-0.692991 -0.423744,-1.117756 -0.03031,-0.424763 0.124277,-0.802533 0.125057,-0.803565 0.183755,-0.242831 0.278116,-0.541615 0.267165,-0.845938 -0.04296,-1.19564 0.255914,-1.789307 0.594277,-2.143527 0.191952,-0.200863 0.3158,-0.457055 0.353982,-0.732252 z" color="#000" font-family="sans-serif" font-weight="400" overflow="visible" style="line-height:normal;font-variant-ligatures:normal;font-variant-position:normal;font-variant-caps:normal;font-variant-numeric:normal;font-variant-alternates:normal;font-variant-east-asian:normal;font-feature-settings:normal;font-variation-settings:normal;text-indent:0;text-align:start;text-decoration-line:none;text-decoration-style:solid;text-decoration-color:#000;text-transform:none;text-orientation:mixed;white-space:normal;shape-padding:0;shape-margin:0;inline-size:0;isolation:auto;mix-blend-mode:normal;solid-color:#000;solid-opacity:1"/><path fill="#f9ff3d" d="m 30.087419,26.457817 0.07906,4.154249 c -0.616085,0.644958 -1.01196,1.648063 -0.959626,3.104706 -0.589751,0.779321 -0.571294,2.544914 0.364316,3.598212 l -2.890249,1.776626 5.335051,-0.03152 c 1.397794,2.444495 5.611083,2.448455 6.666226,0.283701 l 3.542917,0.740004 -2.017438,-2.742456 c 3.608587,-3.053452 -0.761427,-8.7445 -4.743871,-6.108641 -0.387914,-1.014543 -1.859014,-1.687552 -3.277822,-1.555452 z"/></svg>