<svg xmlns="http://www.w3.org/2000/svg" width="256" height="256.00098" viewBox="0 0 67.733 67.73326"><path fill="#273339" d="m 34.78375,21.759943 c -1.82915,0 -3.34034,1.51119 -3.34034,3.34035 0,0.20849 0.025,0.41129 0.0625,0.60975 -0.1345,-0.018 -0.25426,-0.0806 -0.39326,-0.0806 -0.75252,0 -1.42245,0.30718 -1.96524,0.75965 0.006,-0.08 0.047,-0.14904 0.047,-0.23048 0,-1.73783 -1.43716,-3.17499 -3.17499,-3.17499 -1.73782,0 -3.174981,1.43716 -3.174981,3.17499 0,1.73783 1.437161,3.17498 3.174981,3.17498 0.76992,0 1.45611,-0.31445 2.00917,-0.7798 -0.005,0.07 -0.0413,0.12996 -0.0413,0.20103 0,1.71042 1.41495,3.12538 3.12538,3.12538 1.71042,0 3.12537,-1.41496 3.12537,-3.12538 0,-0.13372 -0.0608,-0.24873 -0.0775,-0.37827 0.20258,0.0391 0.41012,0.0641 0.62322,0.0641 1.82915,0 3.34034,-1.51122 3.34034,-3.34035 0,-1.82916 -1.51119,-3.34035 -3.34034,-3.34035 z m 6.39958,1.98437 c -1.80473,0.009 -3.29076,1.5025 -3.29074,3.30727 0,0.74118 0.29593,1.39599 0.71623,1.95077 -0.10725,-0.008 -0.21009,-0.0325 -0.31935,-0.0325 -0.008,-3e-5 -0.0148,-3e-5 -0.0222,0 -0.001,0 -0.003,0 -0.004,0 -2.27575,0.0145 -4.14086,1.89136 -4.14082,4.16716 0,2.28578 1.88138,4.16717 4.16717,4.16717 2.26777,0 4.13265,-1.85313 4.162,-4.11446 0.56749,1.12862 1.71061,1.93166 3.04786,1.93166 1.88395,0 3.43957,-1.55564 3.43957,-3.43957 0,-1.88396 -1.55562,-3.43957 -3.43957,-3.43957 -0.50721,0 -0.98078,0.12761 -1.41644,0.32917 0.24768,-0.46233 0.42426,-0.96408 0.42426,-1.51978 0,-1.81091 -1.49639,-3.30728 -3.30728,-3.30728 -0.004,-3e-5 -0.009,-3e-5 -0.0129,0 -10e-4,0 -0.002,0 -0.004,0 z m -6.39958,0.66145 c 0.39925,0 0.69453,0.29527 0.69453,0.69453 0,0.39923 -0.29528,0.69453 -0.69453,0.69453 -0.39924,0 -0.69452,-0.2953 -0.69452,-0.69453 0,-0.39926 0.29528,-0.69453 0.69452,-0.69453 z m -8.76428,1.22369 c 0.30792,0 0.52917,0.22125 0.52917,0.52917 0,0.30792 -0.22125,0.52916 -0.52917,0.52916 -0.30791,0 -0.52916,-0.22124 -0.52916,-0.52916 0,-0.30792 0.22125,-0.52917 0.52916,-0.52917 z m 15.1773,0.76068 c 10e-4,0 0.002,0 0.003,0 0.38098,0 0.66145,0.28045 0.66145,0.66145 0,0.38097 -0.28047,0.66146 -0.66145,0.66146 -0.38098,0 -0.66146,-0.28049 -0.66146,-0.66146 0,-0.37949 0.27889,-0.65958 0.65836,-0.66145 z m -10.08409,1.88514 c 0.28052,0 0.47955,0.19902 0.47955,0.47956 0,0.28051 -0.19903,0.47955 -0.47955,0.47955 -0.28052,0 -0.47956,-0.19904 -0.47956,-0.47955 0,-0.28054 0.19904,-0.47956 0.47956,-0.47956 z m -7.606734,1.19062 c -1.975277,0 -3.604931,1.62964 -3.604931,3.60493 0,1.97527 1.629654,3.60493 3.604931,3.60493 0.520766,0 1.014284,-0.11893 1.463464,-0.32194 -0.0587,0.22542 -0.14055,0.44352 -0.14055,0.68574 0,0.37365 0.0824,0.72906 0.21704,1.0578 -2.0197,0.31549 -3.590465,2.06528 -3.590465,4.1677 0,2.32232 1.910989,4.23331 4.233315,4.23331 2.32232,0 4.23331,-1.91099 4.23331,-4.23331 0,-1.02872 -0.38964,-1.96418 -1.00924,-2.70112 0.93691,-0.46855 1.60455,-1.41771 1.60455,-2.52438 0,-1.55518 -1.28909,-2.84425 -2.84426,-2.84425 -0.28766,0 -0.55144,0.0852 -0.81441,0.1669 0.1574,-0.4028 0.25217,-0.83614 0.25217,-1.29138 0,-1.97529 -1.62965,-3.60493 -3.604924,-3.60493 z m 19.016834,0.60254 c -0.23208,0.42169 -0.40284,0.87246 -0.43873,1.37458 -0.18367,-0.40643 -0.43453,-0.77385 -0.73225,-1.09966 0.41455,-0.0196 0.80836,-0.11337 1.17098,-0.27492 z m 2.97655,0.81959 c 0.45404,0 0.79374,0.3397 0.79374,0.79375 0,0.45402 -0.3397,0.79374 -0.79374,0.79374 -0.45405,0 -0.79375,-0.33972 -0.79375,-0.79374 0,-0.45405 0.3397,-0.79375 0.79375,-0.79375 z m -7.21968,0.7276 c 0.002,0 0.004,-2e-5 0.006,0 0.001,0 0.003,0 0.004,0 0.85588,0 1.52134,0.66545 1.52134,1.52135 0,0.85587 -0.66546,1.52135 -1.52134,1.52135 -0.85589,0 -1.52135,-0.66548 -1.52135,-1.52135 -2e-5,-0.85182 0.65973,-1.51595 1.51153,-1.52135 z m -14.773704,0.49609 c 0.545372,0 0.959104,0.41373 0.959104,0.95911 0,0.54536 -0.413732,0.95911 -0.959104,0.95911 -0.54537,0 -0.95911,-0.41375 -0.95911,-0.95911 0,-0.54538 0.41374,-0.95911 0.95911,-0.95911 z m 4.167164,4.72941 c 0.12526,0 0.19844,0.0732 0.19844,0.19843 0,0.12526 -0.0732,0.19844 -0.19844,0.19844 -0.12526,0 -0.19844,-0.0732 -0.19844,-0.19844 0,-0.12528 0.0732,-0.19843 0.19844,-0.19843 z m 15.3561,0.7276 c -1.31844,0.0122 -2.40817,1.11233 -2.40812,2.43085 -5e-5,0.54551 0.20007,1.05216 0.5209,1.46964 -0.0163,0.13822 -0.0413,0.27525 -0.0413,0.41497 v 0 c 0,1.95701 1.61485,3.57186 3.57186,3.57186 1.95701,0 3.57186,-1.61485 3.57186,-3.57186 0,-1.92557 -1.56547,-3.51179 -3.47988,-3.56257 -0.44734,-0.45487 -1.04621,-0.75318 -1.71203,-0.75342 -0.006,-3e-5 -0.0114,-3e-5 -0.0171,0 -0.002,0 -0.004,0 -0.006,0 z m -9.46915,2.56314 c -1.33598,0 -2.44738,1.11137 -2.44738,2.44738 0,0.68172 0.29402,1.29971 0.75499,1.74664 -0.33113,0.5394 -0.57311,1.13622 -0.57309,1.80868 0,1.94788 1.60744,3.55532 3.55532,3.55532 1.94788,0 3.55532,-1.60744 3.55532,-3.55532 0,-1.55627 -1.03264,-2.87984 -2.4386,-3.35535 0.006,-0.0692 0.0408,-0.12941 0.0408,-0.19997 0,-1.33601 -1.1114,-2.44738 -2.44738,-2.44738 z m -7.87131,0.5457 c 0.89241,0 1.58749,0.69505 1.58749,1.58749 0,0.89241 -0.69508,1.58749 -1.58749,1.58749 -0.89242,0 -1.587495,-0.69508 -1.587495,-1.58749 0,-0.89244 0.695075,-1.58749 1.587495,-1.58749 z m 18.98376,0.28112 c 0.5271,0 0.92603,0.39891 0.92603,0.92603 0,0.5271 -0.39893,0.92604 -0.92603,0.92604 -0.52711,0 -0.92604,-0.39894 -0.92604,-0.92604 10e-5,-0.12337 0.0249,-0.24548 0.0729,-0.35917 0.0684,-0.16227 0.10371,-0.33655 0.10387,-0.51263 0.17396,0.0262 0.3514,0.0175 0.52193,-0.0259 0.0743,-0.0188 0.15076,-0.0284 0.22737,-0.0284 z m -11.11245,1.42212 c 0.0939,0 0.19844,0.10451 0.19844,0.19844 0,0.0939 -0.10451,0.19844 -0.19844,0.19844 -0.0939,0 -0.19844,-0.10454 -0.19844,-0.19844 0,-0.0939 0.10452,-0.19844 0.19844,-0.19844 z m 1.28312,2.84426 h 0.002 c 0.002,0 0.003,0 0.005,0 0.51798,0 0.9095,0.39153 0.9095,0.9095 0,0.51797 -0.39152,0.9095 -0.9095,0.9095 -0.51797,0 -0.9095,-0.39153 -0.9095,-0.9095 -1e-5,-0.5149 0.3879,-0.90558 0.90278,-0.9095 z" color="#000" font-family="sans-serif" font-weight="400" overflow="visible" style="line-height:normal;font-variant-ligatures:normal;font-variant-position:normal;font-variant-caps:normal;font-variant-numeric:normal;font-variant-alternates:normal;font-variant-east-asian:normal;font-feature-settings:normal;font-variation-settings:normal;text-indent:0;text-align:start;text-decoration-line:none;text-decoration-style:solid;text-decoration-color:#000;text-transform:none;text-orientation:mixed;white-space:normal;shape-padding:0;shape-margin:0;inline-size:0;isolation:auto;mix-blend-mode:normal;solid-color:#000;solid-opacity:1"/><circle cx="38.289467" cy="33.137085" r="2.8442569" fill="#606277"/><circle cx="45.499329" cy="31.681885" r="2.1166563" fill="#606277"/><circle cx="41.199867" cy="27.051704" r="1.9843652" fill="#606277"/><circle cx="34.783752" cy="25.10041" r="2.0174379" fill="#606277"/><circle cx="31.112679" cy="28.754951" r="1.8024651" fill="#606277"/><circle cx="26.019478" cy="26.158737" r="1.8520743" fill="#606277"/><circle cx="23.505943" cy="33.07093" r="2.2820201" fill="#606277"/><circle cx="27.673111" cy="37.039673" r="1.5213467" fill="#606277"/><circle cx="25.688751" cy="42.265167" r="2.9104023" fill="#606277"/><circle cx="33.560066" cy="42.579361" r="1.1244737" fill="#606277"/><circle cx="34.849899" cy="46.134674" r="2.2324109" fill="#606277"/><circle cx="44.672508" cy="41.884834" r="2.2489474" fill="#606277"/><circle cx="43.051941" cy="39.999687" r="1.1079372" fill="#606277"/></svg>