<svg xmlns="http://www.w3.org/2000/svg" width="256" height="256.00098" viewBox="0 0 67.733 67.73326"><path fill="#273339" d="m 26.4427,6.3485583 c -0.649007,0.0034 -1.199723,0.477068 -1.300172,1.118256 0,0 -0.280359,1.853582 0.05994,4.6632577 0.137537,1.129871 1.542917,1.570215 2.300621,0.72088 0.981806,0.432777 2.04336,-0.421664 1.830371,-1.473272 C 29.028623,9.8713883 28.591118,8.7635833 28.21261,8.0161393 27.834101,7.2686953 27.451937,6.8084543 27.451937,6.8084543 27.199115,6.5147423 26.83023,6.3466533 26.4427,6.3485583 Z m 4.99812,12.4684277 c -2.491423,0.01931 -4.528459,2.072524 -4.528385,4.56404 -10e-6,0.33803 0.04658,0.669287 0.119374,0.994246 -1.86532,0.163115 -3.373221,1.604717 -3.634385,3.442133 -0.423098,-0.198542 -0.871753,-0.335252 -1.346164,-0.335357 -0.0099,-5.3e-5 -0.02005,-8e-5 -0.02997,0 -0.0026,0 -0.0052,0 -0.0078,0 -0.813079,0.0095 -1.560399,0.350465 -2.135778,0.887778 -0.826083,-0.185631 -1.450034,-0.16793 -1.450034,-0.16793 -0.959361,0.0254 -1.573334,1.031791 -1.157027,1.896498 0,0 0.59065,1.00684 1.808664,1.662951 0.327997,0.897171 1.010325,1.60797 1.903234,1.930099 -0.004,0.08091 -0.02326,0.157982 -0.02326,0.239791 0,2.14621 1.416546,3.965185 3.352233,4.619311 -0.638783,0.810838 -1.03714,1.817811 -1.03714,2.921277 0,2.614573 2.147903,4.762476 4.762475,4.762476 0.787362,-2.6e-5 1.510573,-0.24831 2.176603,-0.597902 0.212025,0.903362 0.704645,1.71719 1.398874,2.350758 0.726315,1.246446 2.043351,2.050352 3.502093,2.050511 2.240131,0 4.084485,-1.844375 4.084485,-4.084485 v -0.0026 c -1.32e-4,-0.109643 -0.01122,-0.218915 -0.02016,-0.328135 0.08029,-0.344115 0.168893,-0.688045 0.16898,-1.042321 v 0 c 0,-1.070684 -0.385525,-2.048367 -1.004583,-2.836001 0.137712,-0.06718 0.290558,-0.101944 0.422709,-0.179308 0.560657,1.846201 2.266235,3.213746 4.286023,3.213746 2.46845,0 4.497894,-2.02945 4.497894,-4.497895 0,-0.632139 -0.136225,-1.233455 -0.375685,-1.781298 1.527972,-0.604067 2.624633,-2.092897 2.624633,-3.824533 0,-2.081123 -1.584196,-3.804161 -3.599245,-4.064854 -0.621328,-0.950907 -1.563756,-1.619533 -2.667008,-1.881522 0.0075,-0.09766 0.04856,-0.188832 0.04857,-0.287336 v 0 c 0,-2.103136 -1.733301,-3.836439 -3.83644,-3.836439 -0.514575,5.3e-5 -1.006396,0.127608 -1.468636,0.320911 -0.536186,-0.829888 -1.326091,-1.469171 -2.262899,-1.813842 -0.143761,-2.379175 -2.123784,-4.294801 -4.536653,-4.294801 -0.01016,-2.7e-5 -0.02032,-5.3e-5 -0.03049,0 -0.0019,0 -0.0034,0 -0.0052,0 z m 13.36656,3.084021 c -0.0853,0 -0.170269,0.01085 -0.253731,0.02842 0,0 -1.435503,0.233467 -2.655637,1.172019 -0.840413,0.647697 -0.614777,1.971507 0.392738,2.304245 0.363499,0.849811 1.464176,1.074468 2.131642,0.435105 0.972686,-0.932969 1.550287,-1.957483 1.550287,-1.957483 0.511104,-0.889075 -0.139877,-1.996484 -1.165299,-1.982302 z m -12.917495,1.480019 c 0.113669,0 0.218716,0.02961 0.32556,0.05321 -0.753911,0.431268 -1.368339,1.065207 -1.777142,1.832971 -0.03273,-0.124671 -0.05322,-0.252411 -0.05323,-0.381369 0,-0.846768 0.658058,-1.50481 1.504811,-1.50481 z m 2.563138,2.083584 h 0.0011 c 0.03274,-2.7e-5 0.06549,0 0.09818,0.0026 0.0011,0 0.0021,0 0.0031,0 h 5.29e-4 c 0.944354,0.05062 1.69636,0.759906 1.802981,1.699649 0.02703,0.235795 0.116988,0.459976 0.260447,0.649046 -0.205117,0.119432 -0.374328,0.291861 -0.48989,0.499187 -0.209017,0.375654 -0.537892,0.669789 -0.934305,0.836132 -0.186012,0.07832 -0.35164,0.198172 -0.484206,0.35036 -0.164769,-0.115464 -0.353699,-0.191796 -0.552419,-0.223255 -0.06613,-0.01032 -0.13169,-0.02408 -0.19637,-0.04133 -0.98261,-0.262545 -1.881646,0.635632 -1.620046,1.618501 0.0089,0.03355 0.01728,0.06726 0.02429,0.101282 0.166258,0.80679 1.021434,1.267163 1.786447,0.961676 0.06829,-0.02728 0.13726,-0.05226 0.207221,-0.07493 0.22799,-0.07395 0.43161,-0.208438 0.589107,-0.389121 0.196013,0.137582 0.425697,0.219391 0.664556,0.236695 1.115666,0.07927 2.111947,0.713392 2.655639,1.690838 0.634428,1.140269 2.361728,0.77086 2.474255,-0.529164 0.03381,-0.392164 0.195775,-0.761705 0.461468,-1.052137 0.129627,-0.141869 0.226792,-0.310275 0.284738,-0.493499 0.18898,0.03247 0.38276,0.02355 0.56792,-0.02646 0.151674,-0.04096 0.307981,-0.06146 0.465085,-0.06149 0.744031,-7.9e-5 1.401835,0.451933 1.668108,1.146672 0.0109,0.02866 0.02278,0.05694 0.03566,0.08477 0.0061,0.03212 0.01328,0.064 0.0217,0.09559 0.03994,0.149806 0.06039,0.304349 0.06046,0.459394 -2.65e-4,1.00176 -0.784094,1.785426 -1.785929,1.785426 -0.184371,0 -0.367478,-0.02868 -0.543115,-0.08477 -1.161751,-0.371315 -2.164464,0.893546 -1.537883,1.939942 0.04148,0.06929 0.06353,0.148139 0.06356,0.228916 -4.8e-5,0.04339 -0.0066,0.08662 -0.01913,0.128164 -0.02885,0.0967 -0.04653,0.196399 -0.05271,0.297125 -0.101335,-0.0069 -0.203117,-0.0026 -0.303341,0.01455 -0.02328,0.004 -0.04719,0.0061 -0.07079,0.0064 -0.01762,-2.6e-5 -0.03523,0 -0.05271,-0.0032 -0.534612,-0.06363 -1.05446,0.20304 -1.314642,0.674393 -0.600675,1.087803 -1.739606,1.759603 -2.982234,1.759577 -0.258325,2.6e-5 -0.516215,-0.02918 -0.767907,-0.08734 -0.698462,-0.161183 -1.398252,0.26318 -1.578189,0.957046 -0.01209,0.0467 -0.02804,0.09258 -0.04703,0.136922 -0.386753,0.903891 0.312516,1.898878 1.293973,1.841226 0.03565,-0.0026 0.07125,-0.0034 0.106967,-0.0037 h 5.3e-4 c 1.11135,2.64e-4 1.983846,0.872935 1.983846,1.984365 -1.06e-4,0.212459 -0.03423,0.423649 -0.101284,0.62526 -0.06176,0.185763 -0.08153,0.382903 -0.05788,0.577239 0.0069,0.05699 0.01027,0.114141 0.01035,0.171555 -7.94e-4,0.809462 -0.628975,1.43713 -1.438665,1.43713 -0.558512,-7.9e-5 -1.059601,-0.317128 -1.299138,-0.821659 -0.08368,-0.176133 -0.205265,-0.331601 -0.35605,-0.455267 -0.460169,-0.377479 -0.726029,-0.939081 -0.726051,-1.534258 3.5e-5,-0.421109 0.133921,-0.830497 0.382406,-1.170484 0.578757,-0.792318 0.123981,-1.916844 -0.842839,-2.084087 -0.102288,-0.01773 -0.200638,-0.05196 -0.291972,-0.101282 -0.74787,-0.403831 -1.677077,-0.0079 -1.90375,0.811315 -0.255303,0.923259 -1.08227,1.552302 -2.040176,1.552355 -1.184666,0 -2.116655,-0.93199 -2.116655,-2.116656 0,-1.184507 0.931727,-2.116392 2.116139,-2.116656 0.01188,0 0.02379,0 0.03566,0 0.248937,0.004 0.493969,-0.0622 0.706929,-0.191187 0.09788,0.228943 0.258367,0.425607 0.463018,0.567396 0.121348,0.08398 0.233579,0.180498 0.334863,0.287839 0.583097,0.618037 1.5893,0.534059 2.061878,-0.172084 0.09299,-0.138985 0.220246,-0.251142 0.370002,-0.325569 0.641796,-0.318847 0.913062,-1.090712 0.611846,-1.740976 -0.05954,-0.128534 -0.110908,-0.260851 -0.153995,-0.395841 -0.183387,-0.573799 -0.731236,-0.951278 -1.332729,-0.918285 0.580316,-0.174359 0.968008,-0.720668 0.941023,-1.326006 -0.0021,-0.05016 -0.0031,-0.100144 -0.0031,-0.150362 v 0 c -1.1e-5,-0.127793 0.0075,-0.25548 0.02222,-0.382426 0.09529,-0.819279 -0.57414,-1.525104 -1.397323,-1.473273 -0.03768,0.0026 -0.07542,0.0037 -0.113173,0.0037 -0.232184,-5.3e-5 -0.462016,-0.04474 -0.677473,-0.13126 -0.825085,-0.331309 -1.735584,0.229261 -1.811251,1.115161 -0.01037,0.121496 -0.03055,0.24196 -0.06046,0.360175 -0.228152,0.902622 0.522568,1.752301 1.446414,1.637102 0.02561,-0.0032 0.05119,-0.0045 0.077,-0.0045 0.139583,2.6e-5 0.274678,0.04622 0.384988,0.131762 0.251512,0.19497 0.564869,0.29276 0.88263,0.27543 -0.304285,0.09147 -0.565489,0.289399 -0.735869,0.55758 -0.08892,0.140122 -0.228422,0.238864 -0.390155,0.275959 -0.137091,0.03154 -0.268273,0.08474 -0.388605,0.157611 -0.05538,-0.129513 -0.131095,-0.249368 -0.224276,-0.355016 -0.08018,-0.09086 -0.13187,-0.202617 -0.149862,-0.322446 -0.13808,-0.920375 -1.158091,-1.414297 -1.96576,-0.951887 -0.340149,0.19468 -0.724805,0.297126 -1.116723,0.297152 -1.257727,0 -2.248947,-0.99123 -2.248947,-2.248947 9.3e-5,-1.177655 0.879434,-2.137267 2.05258,-2.240163 1.145499,-0.100991 1.625702,-1.514521 0.77876,-2.292365 -0.287225,-0.263524 -0.450104,-0.633912 -0.450101,-1.023695 0,-0.782845 0.606233,-1.389055 1.389054,-1.389055 0.748698,0 1.342815,0.56049 1.386473,1.307908 0.04573,0.782713 0.758237,1.354157 1.532198,1.228878 0.09552,-0.01535 0.192113,-0.02328 0.28887,-0.02328 0.146608,5.3e-5 0.292774,0.01746 0.435113,0.0527 0.985619,0.242966 1.866383,-0.668731 1.589559,-1.645383 -0.04834,-0.170417 -0.07291,-0.346311 -0.07286,-0.523475 v 0 c 0,-1.075076 0.843149,-1.91822 1.91822,-1.91822 z m 5.291641,1.785928 c 0.673232,0 1.190619,0.51739 1.190619,1.190619 -5e-5,0.269027 -0.09106,0.529297 -0.25838,0.739984 -0.09983,0.126099 -0.175833,0.269344 -0.224276,0.422722 -0.158527,-0.0272 -0.320686,-0.02514 -0.47852,0.0058 -0.07555,0.01482 -0.152447,0.02223 -0.229443,0.02223 -0.570857,-1.06e-4 -1.047303,-0.387057 -1.16478,-0.945696 -0.04033,-0.190922 -0.122383,-0.370573 -0.240294,-0.526042 0.168701,-0.09819 0.313583,-0.232488 0.42426,-0.393274 0.222895,-0.324299 0.587293,-0.5162 0.980814,-0.516226 z m -6.17272,2.427223 0.835605,0.449578 c -0.03274,0.17518 -0.02975,0.355175 0.0088,0.529164 l -0.711581,0.711064 z m -13.414618,7.172131 c -1.856551,0 -3.389957,1.533412 -3.389957,3.389957 0,1.856546 1.533406,3.389958 3.389957,3.389958 0.718182,0 1.418205,-0.228255 1.99832,-0.651639 1.023805,-0.747074 0.512685,-2.367242 -0.754475,-2.391557 -0.384056,-0.0074 -0.665045,-0.293369 -0.665072,-0.677489 2.4e-5,-0.241749 0.124666,-0.460426 0.332797,-0.58343 1.090687,-0.644601 0.738988,-2.305806 -0.519345,-2.453072 -0.129966,-0.01508 -0.26086,-0.02275 -0.391706,-0.02275 z m 22.894613,1.579237 c 1.038543,0 1.852075,0.813511 1.852075,1.852075 0,1.038537 -0.813532,1.852074 -1.852075,1.852074 -1.03854,0 -1.852074,-0.813537 -1.852074,-1.852074 2.7e-5,-0.342132 0.09489,-0.677383 0.273885,-0.968926 0.11291,-0.183991 0.179085,-0.392799 0.192753,-0.608248 0.215515,0.01429 0.431258,-0.02434 0.628382,-0.112659 0.238275,-0.106838 0.495915,-0.162215 0.757054,-0.162242 z M 56.1472,41.537968 c -0.402631,-0.0026 -0.784174,0.179837 -1.036622,0.493499 0.004,-0.0058 0.02151,-0.02514 0.01394,-0.01852 -0.02982,0.02593 -0.11745,0.09657 -0.293003,0.190684 -0.351109,0.188197 -1.057691,0.470004 -2.325946,0.635103 -1.443795,0.187456 -1.56994,2.229368 -0.160197,2.593115 3.224909,0.832799 7.175756,1.015943 7.175756,1.015943 1.200401,0.06085 1.853482,-1.381172 1.015953,-2.243259 -1.678085,-1.72743 -3.904652,-2.57142 -3.904652,-2.57142 -0.154336,-0.06191 -0.318956,-0.09414 -0.48524,-0.09506 z m -45.115369,1.873241 c -0.229893,0.0037 -0.45484,0.06734 -0.652671,0.184493 0,0 -1.3976521,0.811023 -2.4747709,2.326973 -0.5505661,0.775146 -0.1281847,1.860646 0.8014957,2.059824 0.8673026,0.185842 1.4433432,-0.05646 1.9233872,-0.22635 0.480047,-0.169862 0.852142,-0.364303 0.852142,-0.364303 0.637849,-0.331231 0.894594,-1.111113 0.578255,-1.756481 0.02707,-0.04956 0.06201,-0.120411 0.06201,-0.120411 0.645041,-0.882223 0.0029,-2.12179 -1.08985,-2.103745 z m 32.412849,6.651248 c -0.43791,0.0042 -0.84539,0.224736 -1.0883,0.589119 0,0 0.04122,-0.04083 -0.05736,0.03564 -0.09858,0.07649 -0.268209,0.18399 -0.574122,0.241325 -0.897406,0.168407 -1.358517,1.173686 -0.900716,1.963702 1.034952,1.785796 2.697496,2.999804 2.697496,2.999804 0.885087,0.676589 2.159018,0.02328 2.125959,-1.090369 0,0 -0.0059,-2.128959 -1.022671,-4.037971 -0.23188,-0.435555 -0.686871,-0.705879 -1.180284,-0.701249 z" color="#000" font-family="sans-serif" font-weight="400" overflow="visible" style="line-height:normal;font-variant-ligatures:normal;font-variant-position:normal;font-variant-caps:normal;font-variant-numeric:normal;font-variant-alternates:normal;font-variant-east-asian:normal;font-feature-settings:normal;font-variation-settings:normal;text-indent:0;text-align:start;text-decoration-line:none;text-decoration-style:solid;text-decoration-color:#000;text-transform:none;text-orientation:mixed;white-space:normal;shape-padding:0;shape-margin:0;inline-size:0;isolation:auto;mix-blend-mode:normal;solid-color:#000;solid-opacity:1"/><path fill="#f9ff3d" d="m 26.515562,11.971032 c -0.322458,-2.6623567 -0.06614,-4.2994577 -0.06614,-4.2994577 0,0 1.025254,1.190619 1.587491,3.9687297 -0.992183,-0.628382 -1.521347,0.330728 -1.521347,0.330728 z"/><path fill="#f9ff3d" d="m 44.825467,23.22405 c 0,0 -1.2609,0.264582 -2.120792,0.926037 0.992183,-0.173646 0.802015,0.735855 0.802015,0.735855 0.810282,-0.77721 1.318777,-1.661892 1.318777,-1.661892 z"/><path fill="#f9ff3d" d="m 56.140482,42.860984 c 0,0 2.042242,0.818564 3.447834,2.265484 0,0 -3.902585,-0.198437 -6.912205,-0.975646 2.794648,-0.363801 3.464371,-1.289838 3.464371,-1.289838 z"/><path fill="#f9ff3d" d="m 41.968807,52.228855 c 0.843355,1.455201 2.356433,2.612748 2.356433,2.612748 0,0 -0.05788,-1.934756 -0.868159,-3.456103 0,0 -0.429946,0.644919 -1.488274,0.843355 z"/><path fill="#f9ff3d" d="m 11.054051,44.733749 c 0,0 -1.1782161,0.698655 -2.0711805,1.95542 0.6945278,0.148827 1.8892795,-0.4713 1.8892795,-0.4713 -0.529164,-0.512628 0.181901,-1.48412 0.181901,-1.48412 z"/><path fill="#f9ff3d" d="m 18.462348,29.524409 c 0,0 1.016987,-0.03307 2.067047,0.438201 -0.479555,0.314191 -0.256314,0.909501 -0.256314,0.909501 -1.355983,-0.396873 -1.810733,-1.347702 -1.810733,-1.347702 z"/><circle cx="35.379063" cy="34.989677" r="4.6301856" fill="#606277"/><circle cx="42.522778" cy="33.005318" r="3.1088388" fill="#606277"/><circle cx="39.744667" cy="28.441277" r="2.5135293" fill="#606277"/><circle cx="34.453026" cy="27.382946" r="3.2411299" fill="#606277"/><circle cx="27.375456" cy="28.37513" r="2.7119658" fill="#606277"/><circle cx="25.854109" cy="33.931351" r="3.5718575" fill="#606277"/><circle cx="28.036911" cy="41.471939" r="3.4395664" fill="#606277"/><circle cx="34.717606" cy="44.58078" r="3.3072755" fill="#606277"/><circle cx="43.051941" cy="40.281319" r="3.1749845" fill="#606277"/><circle cx="32.435589" cy="40.380539" r="2.2820201" fill="#606277"/><circle cx="29.558258" cy="36.742538" r="1.9512925" fill="#606277"/><circle cx="30.583513" cy="31.318542" r="3.1419115" fill="#606277"/><circle cx="40.058857" cy="36.874825" r="1.7693924" fill="#606277"/><path fill="#ffe400" d="m 37.227518,31.866357 a 4.1340943,4.1340943 0 0 1 2.021055,3.553257 4.1340943,4.1340943 0 0 1 -4.134095,4.134095 4.1340943,4.1340943 0 0 1 -4.109546,-3.68658 4.7294039,4.7294039 0 0 0 -0.02455,0.478523 4.7294039,4.7294039 0 0 0 4.729404,4.729403 4.7294039,4.7294039 0 0 0 4.729403,-4.729403 4.7294039,4.7294039 0 0 0 -3.211674,-4.479295 z"/><path fill="#ffe400" d="m 22.029038,28.805064 a 1.885147,1.885147 0 0 0 -1.863444,1.885147 1.885147,1.885147 0 0 0 1.885147,1.885147 1.885147,1.885147 0 0 0 0.175442,-0.0082 1.885147,1.885147 0 0 1 -0.63846,-1.413927 1.885147,1.885147 0 0 1 1.709705,-1.876865 1.885147,1.885147 0 0 0 -1.246687,-0.4713 1.885147,1.885147 0 0 0 -0.02169,0 z"/><path fill="#ffe400" d="m 31.451155,20.140002 a 3.2411299,3.2411299 0 0 0 -3.21581,3.24113 3.2411299,3.2411299 0 0 0 0.934306,2.276596 2.8277205,2.8277205 0 0 1 -0.107487,-0.771786 2.8277205,2.8277205 0 0 1 2.827721,-2.82772 2.8277205,2.8277205 0 0 1 2.732894,2.101151 3.2411299,3.2411299 0 0 0 0.09483,-0.778241 3.2411299,3.2411299 0 0 0 -3.24113,-3.24113 3.2411299,3.2411299 0 0 0 -0.02532,0 z"/><path fill="#ffe400" d="m 45.681223,31.88083 a 2.7946477,2.7946477 0 0 0 -1.16633,0.25503 2.4639202,2.4639202 0 0 1 0.339511,-0.02355 2.4639202,2.4639202 0 0 1 2.463921,2.46392 2.4639202,2.4639202 0 0 1 -2.463921,2.46392 2.4639202,2.4639202 0 0 1 -0.907175,-0.173116 2.7946477,2.7946477 0 0 0 1.733994,0.603062 2.7946477,2.7946477 0 0 0 2.794648,-2.794648 2.7946477,2.7946477 0 0 0 -2.794648,-2.794648 z"/><path fill="#ffe400" d="m 20.157326,38.172934 a 2.0670471,2.0670471 0 0 0 -2.067047,2.067048 2.0670471,2.0670471 0 0 0 2.067047,2.067047 2.0670471,2.0670471 0 0 0 1.218525,-0.397402 2.0009016,2.0009016 0 0 1 -1.962662,-2.000373 2.0009016,2.0009016 0 0 1 0.982883,-1.722376 2.0670471,2.0670471 0 0 0 -0.238746,-0.01402 z"/><path fill="#ffe400" d="m 37.162923,44.101477 a 2.4308474,2.4308474 0 0 1 0.150893,0.843091 2.4308474,2.4308474 0 0 1 -2.430847,2.430847 2.4308474,2.4308474 0 0 1 -2.419222,-2.19574 2.761575,2.761575 0 0 0 -0.110844,0.773612 2.761575,2.761575 0 0 0 2.761575,2.761575 2.761575,2.761575 0 0 0 2.761575,-2.761575 2.761575,2.761575 0 0 0 -0.71313,-1.85181 z"/></svg>