<svg xmlns="http://www.w3.org/2000/svg" width="256" height="256.00098" viewBox="0 0 67.733 67.73326"><path fill="#273339" d="m 34.561026,21.296664 c -1.76226,0.004 -3.21685,1.46232 -3.21684,3.2246 0,0.35509 0.0732,0.69188 0.1819,1.01284 -0.24153,-0.0719 -0.4813,-0.15295 -0.74414,-0.15295 -1.48211,0 -2.71196,1.22986 -2.71196,2.71196 0,1.48211 1.22985,2.71197 2.71196,2.71197 1.48211,0 2.71197,-1.22986 2.71197,-2.71197 0,-0.20716 -0.075,-0.39189 -0.12041,-0.58652 0.37118,0.15094 0.77342,0.23926 1.19527,0.23926 1.76523,0 3.22459,-1.45938 3.22459,-3.22459 0,-1.76471 -1.45852,-3.22375 -3.22304,-3.2246 -0.003,-2e-5 -0.005,-2e-5 -0.008,0 z m -9.24177,1.50481 c -1.52557,0.003 -2.78896,1.26907 -2.78896,2.79465 0,1.52775 1.26688,2.79465 2.79465,2.79465 1.52777,0 2.79464,-1.2669 2.79464,-2.79465 0,-1.52777 -1.26687,-2.79465 -2.79464,-2.79465 h -0.005 z m 16.39324,0.9095 c -1.6191,0 -2.96002,1.34091 -2.96002,2.96002 0,1.04814 0.59223,1.93671 1.42782,2.46339 -0.43821,-0.17709 -0.91312,-0.28059 -1.41128,-0.28059 -0.0111,-5e-5 -0.0225,-8e-5 -0.0336,0 -0.002,0 -0.005,0 -0.007,0 -2.07875,0.022 -3.77971,1.74103 -3.7796,3.8199 0,2.09398 1.7259,3.8199 3.81991,3.8199 2.094,0 3.8199,-1.72592 3.8199,-3.8199 0,-1.36299 -0.73721,-2.56036 -1.8252,-3.237 0.30193,0.10551 0.61356,0.19431 0.94877,0.19431 1.6191,0 2.96001,-1.34093 2.96001,-2.96001 0,-1.61911 -1.34091,-2.96002 -2.96001,-2.96002 z m 4.58057,4.74595 c -1.70129,0 -3.10884,1.40752 -3.10884,3.10883 0,1.70129 1.40755,3.10884 3.10884,3.10884 1.7013,0 3.10884,-1.40755 3.10884,-3.10884 0,-1.70131 -1.40754,-3.10883 -3.10884,-3.10883 z m -23.64702,1.24022 c -1.792619,0 -3.274199,1.48158 -3.274199,3.27421 0,1.79262 1.48158,3.2742 3.274199,3.2742 1.79263,0 3.27421,-1.48158 3.27421,-3.2742 0,-1.79263 -1.48158,-3.27421 -3.27421,-3.27421 z m 4.26639,5.15935 c -1.37251,0 -2.51353,1.14101 -2.51353,2.51353 0,0.53165 0.20808,1.00195 0.49764,1.41126 -0.12748,-0.013 -0.25125,-0.0387 -0.38188,-0.0387 -2.121408,0 -3.869518,1.74809 -3.869518,3.86951 0,2.12139 1.74811,3.86951 3.869518,3.86951 2.1214,0 3.86951,-1.74812 3.86951,-3.86951 0,-1.09053 -0.46693,-2.07681 -1.20406,-2.7833 1.24428,-0.14232 2.24585,-1.18075 2.24585,-2.45873 0,-1.37252 -1.14101,-2.51353 -2.51353,-2.51353 z m 16.42062,3.31553 c -1.16704,0 -2.14148,0.97443 -2.14146,2.14148 1e-5,0.68243 0.35392,1.27113 0.86403,1.66551 -0.0136,0.11814 -0.0703,0.2222 -0.0703,0.34364 0,1.74696 1.44456,3.19152 3.19152,3.19152 1.74696,0 3.19152,-1.44456 3.19152,-3.19152 0,-1.74695 -1.44456,-3.19152 -3.19152,-3.19152 -0.0354,0 -0.0651,0.0196 -0.10025,0.0206 -0.38755,-0.57366 -1.01164,-0.97977 -1.74356,-0.97977 z m -9.75801,2.6789 c -1.14368,0 -2.09857,0.95643 -2.09857,2.10012 0,0.84113 0.52129,1.57315 1.24953,1.90581 -0.47835,0.54318 -0.79478,1.23433 -0.79478,2.00505 0,1.68301 1.39274,3.07577 3.07577,3.07577 1.68303,0 3.07576,-1.39276 3.07576,-3.07577 0,-1.53238 -1.17243,-2.76946 -2.64944,-2.98845 0.14371,-0.28273 0.2434,-0.58854 0.2434,-0.92241 0,-1.14419 -0.95593,-2.10012 -2.10012,-2.10012 h -5.3e-4 z" color="#000" font-family="sans-serif" font-weight="400" overflow="visible" style="line-height:normal;font-variant-ligatures:normal;font-variant-position:normal;font-variant-caps:normal;font-variant-numeric:normal;font-variant-alternates:normal;font-variant-east-asian:normal;font-feature-settings:normal;font-variation-settings:normal;text-indent:0;text-align:start;text-decoration-line:none;text-decoration-style:solid;text-decoration-color:#000;text-transform:none;text-orientation:mixed;white-space:normal;shape-padding:0;shape-margin:0;inline-size:0;isolation:auto;mix-blend-mode:normal;solid-color:#000;solid-opacity:1"/><circle cx="24.514656" cy="42.612171" r="2.546602" fill="#606277"/><circle cx="26.912437" cy="37.370144" r="1.1906191" fill="#606277"/><circle cx="22.646057" cy="32.97147" r="1.9512925" fill="#606277"/><circle cx="30.781944" cy="28.093235" r="1.3890557" fill="#606277"/><circle cx="25.324944" cy="25.596245" r="1.4717376" fill="#606277"/><circle cx="34.568787" cy="24.521378" r="1.9016833" fill="#606277"/><circle cx="41.712494" cy="26.671112" r="1.6371013" fill="#606277"/><circle cx="38.76902" cy="32.673809" r="2.4969931" fill="#606277"/><circle cx="46.29306" cy="31.565868" r="1.7859287" fill="#606277"/><circle cx="45.176865" cy="42.322788" r="1.8686106" fill="#606277"/><circle cx="43.333061" cy="40.313618" r="0.81855065" fill="#606277"/><circle cx="35.006981" cy="46.862019" r="1.752856" fill="#606277"/><circle cx="33.576591" cy="42.951168" r="0.7772097" fill="#606277"/></svg>