<svg xmlns="http://www.w3.org/2000/svg" width="256" height="256.00098" viewBox="0 0 67.733 67.73326"><path fill="#273339" d="m 26.383274,6.877978 c -0.71825,1.6e-4 -1.3052,0.57332 -1.32239,1.29137 0,0 -0.0991,4.2975 0.87281,11.06749 0.1777,1.23552 1.81042,1.56027 2.44738,0.48678 0.35149,-0.5925 0.51488,-0.529 0.82475,-0.51519 0.30987,0.0138 0.58291,0.14417 0.58291,0.14417 1.02447,0.55401 2.21325,-0.39037 1.9053,-1.5136 -1.04405,-3.80574 -2.07922,-6.37859 -2.8701,-8.02117 -0.79087,-1.64258 -1.40249,-2.43654 -1.40249,-2.43654 -0.25083,-0.31776 -0.63334,-0.5032 -1.03817,-0.50331 z m 1.74975,8.47954 c 0.13339,0.39491 0.26926,0.83925 0.40618,1.27899 -0.08,0.0167 -0.16195,0.0567 -0.2434,0.0796 -0.0543,-0.45524 -0.11854,-0.93599 -0.16278,-1.35858 z m 3.54189,5.39448 c -2.39539,0 -4.36561,1.97021 -4.36561,4.3656 -10e-6,0.12748 0.036,0.2503 0.047,0.37672 -0.72438,0.24074 -1.37885,0.63044 -1.90065,1.13738 -0.54239,0.52697 -0.95149,1.18824 -1.18183,1.91563 -0.62824,0.0723 -1.17772,0.34562 -1.6619,0.71056 -2.26102,-0.83317 -3.91551,-0.81391 -3.91551,-0.81391 -1.0537,0.0642 -1.61155,1.27598 -0.97513,2.11822 0,0 1.22129,1.57855 3.62147,2.6577 0.0252,0.0111 0.0507,0.0214 0.0765,0.031 0.10405,0.26916 0.23373,0.52729 0.40152,0.76377 -0.0299,0.69159 0.0492,1.38596 0.24495,2.05361 -2.10537,0.0193 -3.83489,1.75634 -3.83489,3.86591 0,0.20984 0.0297,0.41219 0.0625,0.61338 -0.36297,-0.55184 -1.07734,-0.75144 -1.67379,-0.46768 0,0 -1.30927,0.62421 -2.898,1.53998 -1.588736,0.91574 -3.461723,2.0939 -4.7578296,3.42869 -0.790495,0.81515 -0.254372,2.18193 0.879528,2.24223 2.9886316,0.15835 5.7939316,-1.24902 5.7939316,-1.24902 0.58126,-0.27437 0.88122,-0.92683 0.71107,-1.54666 0.0169,0.0616 0.16564,-0.57256 0.64853,-1.15858 0.4829,-0.586 1.02939,-1.03817 1.02939,-1.03817 0.28824,-0.23595 0.46366,-0.58248 0.48317,-0.95445 0.56974,1.43202 1.96705,2.45979 3.59098,2.45979 1.28339,1.1e-4 2.46182,-0.65653 3.1786,-1.7079 0.1889,0.29583 0.39324,0.58364 0.64182,0.83817 0.94165,0.96419 2.33553,1.5341 3.89483,1.51362 0.47473,0.99417 1.15606,1.75669 1.96215,2.26702 0.69236,1.21662 1.96199,2.01685 3.38634,2.01693 2.10985,0 3.84441,-1.7025 3.92119,-3.79511 0.27423,-0.3516 0.52082,-0.72641 0.73173,-1.14048 1.9409,0.3043 3.64795,-0.23222 4.69065,-1.37924 0.008,0.57586 0.38782,1.08031 0.93895,1.24745 8.24338,2.49493 13.69574,2.4381 13.69574,2.4381 1.30506,-0.0172 1.79941,-1.71362 0.70797,-2.42931 0,0 -4.371,-2.87297 -9.81383,-4.7728 -0.85586,-0.29877 -1.7519,0.33218 -1.75905,1.23867 -10e-4,0.1311 0.003,0.12353 -0.14315,0.25114 -0.14615,0.12761 -0.46276,0.29482 -0.82682,0.41084 -0.72811,0.23201 -1.52961,0.27543 -1.52961,0.27543 -0.17112,0.007 -0.33925,0.0472 -0.49506,0.11832 0.39431,-0.95413 0.40272,-2.03545 0.15606,-3.11709 1.70223,-0.18947 3.05355,-1.63686 3.05355,-3.3853 0,-1.84745 -1.50517,-3.37043 -3.34293,-3.41478 -0.23774,-0.45764 -0.53233,-0.88465 -0.92604,-1.23866 -0.39666,-0.35669 -0.8939,-0.62185 -1.43711,-0.78137 -0.0643,-0.2567 -0.14593,-0.5026 -0.2651,-0.73535 0.0535,-0.0456 0.10325,-0.0954 0.14882,-0.14883 1.56782,-1.84006 2.76365,-4.38317 2.76365,-4.38317 0.4958,-1.02663 -0.45232,-2.15777 -1.54977,-1.84895 0,0 -2.58203,0.73289 -5.19966,2.9817 -0.16209,0.13941 -0.28798,0.31602 -0.3669,0.5147 -0.66794,-0.7752 -1.52732,-1.27145 -2.41948,-1.57043 -0.47689,-1.89335 -2.19208,-3.31474 -4.22298,-3.31503 z m 0,2.64582 c 0.96072,1.3e-4 1.71306,0.74821 1.71927,1.70891 0.004,0.65984 0.49417,1.21562 1.14824,1.30277 1.08667,0.14468 2.02187,0.67429 2.35902,2.13164 0.20261,0.87481 1.19927,1.29796 1.96938,0.83613 0.49194,-0.29517 0.75074,-0.19976 1.02164,-0.003 0.27089,0.19717 0.41969,0.53514 0.36896,0.817 -0.15422,0.85743 0.54798,1.62729 1.41593,1.55236 0.34659,-0.03 0.54506,0.0533 0.77721,0.26199 0.23215,0.20875 0.45774,0.58136 0.57154,1.04385 0.0576,0.23366 0.17785,0.44715 0.34778,0.61754 -0.16097,0.17957 -0.26979,0.39973 -0.31471,0.63666 -0.0918,0.48472 -0.3009,0.93435 -0.64699,1.30791 -0.41738,0.45037 -0.47002,1.12876 -0.12712,1.63813 0.89219,1.32516 0.83686,2.55946 0.40204,3.22769 -0.43482,0.66826 -1.2895,1.15316 -3.23234,0.52866 -0.70165,-0.22542 -1.45224,0.16592 -1.66914,0.87024 -0.21303,0.69231 -0.56489,1.27608 -0.99529,1.74198 -0.25919,0.28056 -0.38448,0.65945 -0.34364,1.03923 0.005,0.0458 0.007,0.0919 0.007,0.13798 0,0.72802 -0.56181,1.28983 -1.28984,1.28983 -0.52929,-2e-5 -0.99657,-0.31506 -1.19527,-0.80565 -0.12026,-0.29678 -0.34408,-0.53988 -0.62993,-0.68418 -0.54185,-0.27374 -1.0558,-0.80227 -1.38906,-1.91563 -0.19645,-0.65587 -0.86082,-1.05351 -1.53168,-0.91675 -1.22754,0.25053 -2.04281,-0.10287 -2.605,-0.67849 -0.56218,-0.57565 -0.82045,-1.41488 -0.66248,-2.19418 0.12398,-0.61161 -0.19627,-1.22671 -0.76843,-1.47587 -1.40553,-0.61232 -2.11164,-2.22526 -1.90013,-3.65197 0.0632,-0.42658 -0.0855,-0.85719 -0.39842,-1.15392 -0.16855,-0.15968 -0.26354,-0.38021 -0.26355,-0.61235 0,-0.48146 0.36191,-0.84335 0.84335,-0.84335 0.0988,0 0.19663,0.0172 0.28939,0.0511 0.92503,0.33805 1.88195,-0.41696 1.76836,-1.39525 -0.0393,-0.33734 0.14599,-0.86005 0.57825,-1.28002 0.43227,-0.41997 1.03649,-0.67884 1.61333,-0.64079 0.16743,0.0111 0.33543,-0.01 0.49506,-0.0615 0.10321,0.14049 0.23317,0.25921 0.38241,0.34932 0.10718,0.0646 0.20246,0.12999 0.293,0.2031 0.85987,0.69394 2.14119,0.0905 2.15386,-1.01441 0.002,-0.18592 0.0469,-0.28871 0.22531,-0.45889 1.08094,-1.0332 -0.11335,-2.78536 -1.47019,-2.15695 -0.13243,0.0615 -0.22977,0.17179 -0.35243,0.24854 l -0.004,-0.006 c -0.005,0.005 -0.008,0.0122 -0.0124,0.0169 -0.20484,0.12981 -0.41786,0.24898 -0.59066,0.41704 -0.0198,-0.10494 -0.0781,-0.2004 -0.078,-0.308 v 0 c 0,-0.96549 0.7543,-1.71979 1.71978,-1.71979 z m 13.93861,10.73417 c 0.14386,0.1392 0.23306,0.33314 0.23306,0.56018 0,0.10797 -0.0715,0.17814 -0.10748,0.26974 -0.005,-0.26085 -0.0364,-0.52083 -0.10749,-0.77205 -0.006,-0.0193 -0.0116,-0.0387 -0.0181,-0.0579 z m -24.08058,4.72888 c -0.0276,0.16899 -0.0609,0.33723 -0.061,0.51109 0,0.65744 0.23271,1.2596 0.58394,1.77715 -0.66823,-0.0238 -1.17925,-0.53933 -1.17925,-1.21491 0,-0.48106 0.26672,-0.87201 0.65629,-1.07333 z m 2.682,0.31988 c 0.0891,0.066 0.17278,0.13613 0.26665,0.1974 5.2e-4,0.17299 0.0123,0.34134 0.0305,0.5121 -0.23229,-0.0754 -0.39429,-0.26657 -0.39429,-0.51829 7e-5,-0.076 0.0688,-0.12358 0.0971,-0.19121 z m 26.06908,2.67011 c 0.63981,0.24704 1.27453,0.49315 1.86757,0.75448 -0.67322,-0.13237 -1.34377,-0.27236 -2.10115,-0.45114 0.0856,-0.0901 0.15619,-0.19902 0.23358,-0.30334 z m -7.82739,5.44203 c -0.36846,1e-4 -0.72018,0.15388 -0.97048,0.42425 0,0 0.0335,-0.0188 -0.0863,0.0254 -0.11985,0.0442 -0.28723,0.11208 -0.74362,-0.0806 -1.12092,-0.47283 -2.23208,0.69043 -1.70842,1.78852 0,0 1.69452,3.77109 4.39868,5.94998 0.90838,0.73138 2.25004,0.0151 2.14766,-1.14667 -0.26727,-3.0164 -1.84174,-6.20427 -1.84174,-6.20427 -0.21893,-0.46204 -0.6845,-0.7566 -1.19578,-0.75652 z" color="#000" font-family="sans-serif" font-weight="400" overflow="visible" style="line-height:normal;font-variant-ligatures:normal;font-variant-position:normal;font-variant-caps:normal;font-variant-numeric:normal;font-variant-alternates:normal;font-variant-east-asian:normal;font-feature-settings:normal;font-variation-settings:normal;text-indent:0;text-align:start;text-decoration-line:none;text-decoration-style:solid;text-decoration-color:#000;text-transform:none;text-orientation:mixed;white-space:normal;shape-padding:0;shape-margin:0;inline-size:0;isolation:auto;mix-blend-mode:normal;solid-color:#000;solid-opacity:1"/><path fill="#f9ff3d" d="m 27.243164,19.048858 c -0.95911,-6.6807 -0.85989,-10.84786 -0.85989,-10.84786 0,0 1.98436,2.51352 4.03487,9.98797 0,0 -2.01743,-1.0914 -3.17498,0.85989 z"/><path fill="#f9ff3d" d="m 39.546224,26.126428 c 2.40605,-2.06705 4.69633,-2.71197 4.69633,-2.71197 0,0 -1.19888,2.48046 -2.57967,4.10102 -0.3886,-1.54613 -2.11666,-1.38905 -2.11666,-1.38905 z"/><path fill="#f9ff3d" d="m 45.830054,42.398218 c 8.08629,2.44739 13.29524,2.38124 13.29524,2.38124 0,0 -4.26638,-2.79465 -9.52495,-4.63018 -0.0165,2.10012 -3.77029,2.24894 -3.77029,2.24894 z"/><path fill="#f9ff3d" d="m 40.141534,48.880478 c 0,0 1.73632,3.63801 4.03488,5.49008 -0.23151,-2.61275 -1.71978,-5.75466 -1.71978,-5.75466 0,0 -0.82682,0.89297 -2.3151,0.26458 z"/><path fill="#f9ff3d" d="m 9.9130414,45.970078 c 2.2158736,-2.28202 7.2760026,-4.69633 7.2760026,-4.69633 0,0 -2.53006,2.06705 -2.11665,3.57186 0,0 -2.66236,1.25676 -5.1593526,1.12447 z"/><path fill="#f9ff3d" d="m 22.877564,30.756608 c -2.46392,-1.0914 -4.10102,-0.99218 -4.10102,-0.99218 0,0 0.97564,1.28984 3.10883,2.24895 0.1323,-0.76067 0.99219,-1.25677 0.99219,-1.25677 z"/><path fill="#606277" d="m 25.490304,30.359738 c -0.7276,-2.31509 2.6789,-5.22549 5.42394,-3.00962 0.0331,-2.87733 6.25075,-3.53878 7.276,0.89297 1.819,-1.09141 3.67108,0.52916 3.37342,2.1828 2.67889,-0.23151 3.90259,3.83644 1.819,6.08538 2.24895,3.34035 0.29766,7.24294 -4.33253,5.75466 -1.32291,4.29946 -6.9122,5.65544 -8.3674,0.79375 -3.24113,0.66145 -5.32472,-1.98437 -4.82863,-4.43175 -3.34034,-1.4552 -3.80336,-6.58148 -0.3638,-8.26819 z"/><path fill="#ffe400" d="m 31.674914,22.075018 a 3.0426934,3.0426934 0 0 0 -3.0427,3.04269 3.0426934,3.0426934 0 0 0 1.65597,2.70837 2.1828018,2.1828018 0 0 1 2.18047,-2.07999 2.1828018,2.1828018 0 0 1 1.80454,0.95472 3.0426934,3.0426934 0 0 0 0.44441,-1.5831 3.0426934,3.0426934 0 0 0 -3.04269,-3.04269 z"/><path fill="#ffe400" d="m 24.663494,29.830578 a 2.1662654,2.1662654 0 0 0 -2.16627,2.16626 2.1662654,2.1662654 0 0 0 2.16627,2.16627 2.1662654,2.1662654 0 0 0 0.63587,-0.0953 1.8355379,1.8355379 0 0 1 -0.95007,-1.60792 1.8355379,1.8355379 0 0 1 1.83554,-1.83554 1.8355379,1.8355379 0 0 1 0.16046,0.007 2.1662654,2.1662654 0 0 0 -1.6818,-0.80076 z"/><path fill="#ffe400" d="m 22.100354,37.387698 a 2.5466021,2.5466021 0 0 0 -2.54661,2.5466 2.5466021,2.5466021 0 0 0 2.54661,2.54661 2.5466021,2.5466021 0 0 0 2.19908,-1.26246 1.885147,1.885147 0 0 1 -1.50456,-1.84638 1.885147,1.885147 0 0 1 0.77101,-1.52056 2.5466021,2.5466021 0 0 0 -1.46553,-0.46381 z"/><path fill="#ffe400" d="m 36.885164,42.830228 a 1.9512925,1.9512925 0 0 1 -1.91951,1.60197 1.9512925,1.9512925 0 0 1 -1.83218,-1.28026 2.6127476,2.6127476 0 0 0 -0.58213,1.64406 2.6127476,2.6127476 0 0 0 2.61274,2.61275 2.6127476,2.6127476 0 0 0 2.61275,-2.61275 2.6127476,2.6127476 0 0 0 -0.89167,-1.96577 z"/><path fill="#ffe400" d="m 45.050514,32.592148 a 2.1001199,2.1001199 0 0 0 -1.66242,0.84182 1.7363196,1.7363196 0 0 1 1.03637,1.58903 1.7363196,1.7363196 0 0 1 -0.62994,1.33815 2.1001199,2.1001199 0 0 0 1.27485,0.43124 2.1001199,2.1001199 0 0 0 2.10012,-2.10012 2.1001199,2.1001199 0 0 0 -2.10012,-2.10012 2.1001199,2.1001199 0 0 0 -0.0189,0 z"/><path fill="#ffe400" d="m 35.643644,31.302318 a 4.2333126,4.2333126 0 0 0 -0.3837,0.0175 2.9434751,2.9434751 0 0 1 2.40114,2.89283 2.9434751,2.9434751 0 0 1 -2.94348,2.94348 2.9434751,2.9434751 0 0 1 -2.94347,-2.94348 2.9434751,2.9434751 0 0 1 0.0395,-0.48006 4.2333126,4.2333126 0 0 0 -0.40333,1.80297 4.2333126,4.2333126 0 0 0 4.23331,4.23331 4.2333126,4.2333126 0 0 0 4.23331,-4.23331 4.2333126,4.2333126 0 0 0 -4.23331,-4.23331 z"/></svg>