<svg xmlns="http://www.w3.org/2000/svg" width="256" height="256.00098" viewBox="0 0 67.733 67.73326"><g opacity=".66"><path fill="#273339" d="m -333.5293,2972.8184 c -4.91134,0 -9,4.0886 -9,9 -7e-5,0.015 -7e-5,0.03 0,0.045 10e-4,0.1378 0.006,0.2745 0.0137,0.4121 0.21199,3.8407 4.49981,6.0139 7.72265,3.9141 1.61181,3.5156 6.4335,3.949 8.64649,0.7773 1.05266,-1.5099 1.6174,-3.3079 1.61718,-5.1484 0,-4.9114 -4.08866,-9 -9,-9 z m -38.98437,7.3418 c -0.68542,0 -1.36352,0.1409 -1.99219,0.414 -2.71067,0.88 -4.75781,3.3715 -4.75781,6.3379 3e-5,2.6368 1.56145,5.0596 3.96289,6.1484 2.36571,1.071 5.15749,0.1528 6.42578,-2.1132 2.38335,-1.0273 3.58459,-3.7073 2.76562,-6.17 -0.91188,-2.7389 -3.51753,-4.6167 -6.40429,-4.6171 z m 70.13476,3.2832 c -2.45265,0.034 -4.73586,1.3233 -6.03125,3.4062 -1.47458,2.3735 -0.718,5.4948 1.67969,6.9297 0.52981,2.7427 3.20378,4.5194 5.9375,3.9453 3.31017,-0.6968 5.73049,-3.6778 5.73242,-7.0605 v 0 c -9e-5,-3.9275 -3.29122,-7.2187 -7.21875,-7.2187 -0.0222,-1e-4 -0.0442,-2e-4 -0.0664,0 h -0.0332 z m -47.66015,6.375 c -4.02154,0.039 -7.36432,3.414 -7.36524,7.4355 v 0 c -3.5e-4,1.345 0.36417,2.666 1.05469,3.8203 1.73924,2.9048 5.8019,3.2778 8.04102,0.7383 3.34409,0.5049 6.21453,-2.3862 5.68554,-5.7266 -0.5687,-3.5753 -3.72151,-6.2681 -7.34179,-6.2695 -0.008,-1e-4 -0.0155,-1e-4 -0.0234,0 h -0.002 c -0.0163,-1e-4 -0.0326,-1e-4 -0.0488,0 z m 66.58984,13.4824 c -0.0143,6e-4 -0.0286,0 -0.043,0 -0.73329,0.013 -1.45476,0.1869 -2.11328,0.5098 -1.29439,0.4328 -2.50122,1.09 -3.37695,2.1719 -1.80302,2.2288 -1.36695,5.5141 0.95508,7.1953 0.24786,2.8543 2.83848,4.9171 5.67578,4.5195 3.53492,-0.4961 6.22869,-3.5945 6.22851,-7.164 5e-5,-3.9363 -3.29814,-7.2344 -7.23437,-7.2344 -0.0303,-10e-5 -0.0615,-3e-4 -0.0918,0 z m -26.7207,3.5488 c -1.61516,-3e-4 -3.19701,0.465 -4.55469,1.3399 -3.09597,1.9972 -3.04249,6.5429 0.0996,8.4667 -1.47557,3.3757 1.08197,7.1339 4.76367,7 4.46716,-0.164 8.09811,-3.9302 8.09766,-8.4003 7e-5,-4.5835 -3.82279,-8.4063 -8.40625,-8.4063 z m -77.06641,6.2188 c -3.90329,0.01 -7.16798,3.2842 -7.16797,7.1875 0,3.9103 3.27718,7.1875 7.1875,7.1875 1.09999,0 2.18676,-0.2528 3.17383,-0.7383 2.41309,-1.1891 3.45302,-4.0741 2.35352,-6.5293 1.02538,-2.4828 -0.094,-5.3322 -2.53516,-6.4531 -0.93622,-0.4295 -1.95435,-0.6525 -2.98437,-0.6543 h -0.002 -0.0176 z m 8.25778,36.7031 c -4.30036,0.023 -7.879,3.6214 -7.8789,7.9219 1.1e-4,4.3158 3.60605,7.9218 7.92187,7.9218 h 0.004 c 1.47436,-9e-4 2.91924,-0.4138 4.17187,-1.1914 2.80193,-1.7396 3.18203,-5.6676 0.76563,-7.9121 1.1419,-3.1022 -0.98679,-6.4389 -4.28125,-6.7109 -0.0858,-0.01 -0.17189,-0.01 -0.25781,-0.01 -0.14808,-0.013 -0.29666,-0.02 -0.44532,-0.02 z m 91.6211,2.5605 c -2.07195,0.036 -3.90682,1.3469 -4.61328,3.295 -2.41325,0.8748 -3.77216,3.4348 -3.14453,5.9238 0.83032,3.2938 3.84724,5.6435 7.24414,5.6426 4.06483,0 7.46688,-3.4037 7.46679,-7.4688 v 0 c -0.002,-3.3964 -2.35442,-6.4107 -5.64843,-7.2383 -0.42639,-0.1073 -0.86507,-0.1578 -1.30469,-0.1504 z m -45.61133,19.4551 c -1.94439,0.04 -3.68897,1.2045 -4.47266,2.9844 -0.38828,0.8825 -0.5888,1.8367 -0.58789,2.8008 0.002,3.7705 3.16657,6.9336 6.9375,6.9336 3.77226,0 6.9375,-3.1653 6.9375,-6.9375 v 0 c -6.4e-4,-0.7663 -0.12757,-1.5274 -0.37695,-2.252 -0.89625,-2.6015 -3.7259,-3.9901 -6.33203,-3.1074 -0.66329,-0.2901 -1.38166,-0.4327 -2.10547,-0.418 z" color="#000" font-family="sans-serif" font-weight="400" overflow="visible" transform="matrix(0.26458203,0,0,0.26458203,122.88078,-766.1018)" style="line-height:normal;font-variant-ligatures:normal;font-variant-position:normal;font-variant-caps:normal;font-variant-numeric:normal;font-variant-alternates:normal;font-variant-east-asian:normal;font-feature-settings:normal;font-variation-settings:normal;text-indent:0;text-align:start;text-decoration-line:none;text-decoration-style:solid;text-decoration-color:#000;text-transform:none;text-orientation:mixed;white-space:normal;shape-padding:0;shape-margin:0;inline-size:0;isolation:auto;mix-blend-mode:normal;solid-color:#000;solid-opacity:1"/><path fill="#606277" d="m -333.5293,2977.8188 a 4,4 0 0 0 -4,4 4,4 0 0 0 0.005,0.1836 3.96875,3.96875 0 0 1 3.30762,-1.7774 3.96875,3.96875 0 0 1 3.96777,3.8819 4,4 0 0 0 0.71973,-2.2881 4,4 0 0 0 -4,-4 z" transform="matrix(0.26458203,0,0,0.26458203,122.88078,-766.1018)"/><path fill="#606277" d="m -349.98926,2994.8188 a 2.4375,2.4375 0 0 0 -2.41504,2.4375 2.4375,2.4375 0 0 0 0.34668,1.2539 2.59375,2.59375 0 0 1 2.59082,-2.4727 2.59375,2.59375 0 0 1 1.90625,0.836 2.4375,2.4375 0 0 0 -2.40625,-2.0547 2.4375,2.4375 0 0 0 -0.0224,0 z" transform="matrix(0.26458203,0,0,0.26458203,122.88078,-766.1018)"/><path fill="#606277" d="m -372.51367,2985.1625 a 1.75,1.75 0 0 0 -1.75,1.75 1.75,1.75 0 0 0 1.02831,1.5938 2.2890625,2.2890625 0 0 1 2.28419,-2.1485 2.2890625,2.2890625 0 0 1 0.0977,0 1.75,1.75 0 0 0 -1.66015,-1.1972 z" transform="matrix(0.26458203,0,0,0.26458203,122.88078,-766.1018)"/><path fill="#606277" d="m -387.22266,3018.0688 a 2.1875,2.1875 0 0 0 -2.18164,2.1875 2.1875,2.1875 0 0 0 2.1875,2.1875 2.1875,2.1875 0 0 0 0.9668,-0.2256 2.2890625,2.2890625 0 0 1 -1.16211,-1.9932 2.2890625,2.2890625 0 0 1 1.10352,-1.9579 2.1875,2.1875 0 0 0 -0.90821,-0.1983 2.1875,2.1875 0 0 0 -0.006,0 z" transform="matrix(0.26458203,0,0,0.26458203,122.88078,-766.1018)"/><path fill="#606277" d="m -302.31055,2988.4438 a 2.21875,2.21875 0 0 0 -1.85254,1.0459 2.2890625,2.2890625 0 0 1 0.32129,-0.023 2.2890625,2.2890625 0 0 1 2.28906,2.2891 2.2890625,2.2890625 0 0 1 -0.26953,1.0771 2.21875,2.21875 0 0 0 1.76172,-2.1709 2.21875,2.21875 0 0 0 -2.21875,-2.2187 2.21875,2.21875 0 0 0 -0.0312,0 z" transform="matrix(0.26458203,0,0,0.26458203,122.88078,-766.1018)"/><path fill="#606277" d="m -283.40039,3008.3032 a 2.234375,2.234375 0 0 0 -1.69434,0.8281 2.2890625,2.2890625 0 0 1 0.19043,-0.01 2.2890625,2.2890625 0 0 1 2.28906,2.2891 2.2890625,2.2890625 0 0 1 -0.43164,1.3378 2.234375,2.234375 0 0 0 1.92383,-2.2128 2.234375,2.234375 0 0 0 -2.23437,-2.2344 2.234375,2.234375 0 0 0 -0.043,0 z" transform="matrix(0.26458203,0,0,0.26458203,122.88078,-766.1018)"/><path fill="#606277" d="m -310.16992,3011.85 a 3.40625,3.40625 0 0 0 -1.84473,0.543 3.96875,3.96875 0 0 1 2.8291,3.8008 3.96875,3.96875 0 0 1 -0.85937,2.4658 3.40625,3.40625 0 0 0 3.28125,-3.4033 3.40625,3.40625 0 0 0 -3.40625,-3.4063 z" transform="matrix(0.26458203,0,0,0.26458203,122.88078,-766.1018)"/><path fill="#606277" d="m -287.27051,3057.3315 a 2.2890625,2.2890625 0 0 1 0.17871,0.8857 2.2890625,2.2890625 0 0 1 -2.28906,2.2891 2.2890625,2.2890625 0 0 1 -0.88672,-0.1787 2.46875,2.46875 0 0 0 2.39453,1.8662 2.46875,2.46875 0 0 0 2.46875,-2.4688 2.46875,2.46875 0 0 0 -1.86621,-2.3935 z" transform="matrix(0.26458203,0,0,0.26458203,122.88078,-766.1018)"/><path fill="#606277" d="m -332.86426,3076.7856 a 1.9375,1.9375 0 0 0 -0.16504,0.7832 1.9375,1.9375 0 0 0 1.9375,1.9375 1.9375,1.9375 0 0 0 1.9375,-1.9375 1.9375,1.9375 0 0 0 -0.10449,-0.6289 1.953125,1.953125 0 0 1 -1.77051,1.1289 1.953125,1.953125 0 0 1 -1.83496,-1.2832 z" transform="matrix(0.26458203,0,0,0.26458203,122.88078,-766.1018)"/><path fill="#606277" d="m -378.95117,3054.7719 a 2.921875,2.921875 0 0 0 -2.90625,2.9219 2.921875,2.921875 0 0 0 2.92187,2.9219 2.921875,2.921875 0 0 0 1.54004,-0.4395 3.96875,3.96875 0 0 1 -1.85254,-3.3574 3.96875,3.96875 0 0 1 0.5625,-2.0362 2.921875,2.921875 0 0 0 -0.25,-0.01 2.921875,2.921875 0 0 0 -0.0156,0 z" transform="matrix(0.26458203,0,0,0.26458203,122.88078,-766.1018)"/></g></svg>