<svg xmlns="http://www.w3.org/2000/svg" width="256" height="256.00098" viewBox="0 0 67.733 67.73326"><g opacity=".33"><path fill="#273339" d="m -332.84961,3228.8262 c -3.83699,0 -7.05471,3.2177 -7.05469,7.0547 v 0 c 5.4e-4,0.7495 0.12056,1.4933 0.35547,2.205 0.76915,2.3267 3.11102,3.7531 5.53125,3.3692 2.06284,1.3224 4.78007,0.9553 6.41797,-0.8672 1.15971,-1.2925 1.80374,-2.9725 1.80469,-4.709 v 0 c 2e-5,-3.837 -3.2177,-7.0547 -7.05469,-7.0547 z m 23.79297,34.2383 c -0.65473,0.01 -1.30174,0.1422 -1.9043,0.3984 -1.05049,0.3216 -2.04534,0.7989 -2.84179,1.5801 -1.9127,1.8783 -2.00403,4.9307 -0.20704,6.9199 0.0465,2.7043 2.23494,4.8815 4.93946,4.9141 0.0346,4e-4 0.0689,1e-4 0.10351,0 3.75506,0 6.90635,-3.1512 6.90625,-6.9063 -1e-4,-3.7549 -3.15132,-6.9062 -6.90625,-6.9062 -0.0301,-10e-5 -0.0597,-4e-4 -0.0898,0 z m -71.12695,44.5917 c -0.66937,0.01 -1.33022,0.1513 -1.94336,0.42 -2.65402,0.8794 -4.65243,3.3312 -4.65235,6.2422 1.1e-4,3.6168 3.0394,6.6562 6.65625,6.6562 h 0.006 c 1.78932,0 3.50867,-0.7286 4.75781,-2.0098 1.75766,-1.8048 1.89827,-4.6353 0.32813,-6.6054 -0.14718,-2.3976 -1.97836,-4.3518 -4.36133,-4.6543 -0.13823,-0.017 -0.27696,-0.03 -0.41601,-0.039 -0.12483,-0.01 -0.24992,-0.011 -0.375,-0.01 z m 93.79492,2.1504 c -1.85076,0 -3.54811,1.0294 -4.41211,2.6661 -2.29663,1.2522 -3.24006,4.0629 -2.16406,6.4472 1.05411,2.3341 3.40766,3.8522 5.96875,3.8516 3.55503,0 6.54387,-2.9899 6.54492,-6.5449 v 0 c -6e-5,-2.5892 -1.55294,-4.9636 -3.92578,-6 -0.63441,-0.2771 -1.31944,-0.4194 -2.01172,-0.418 z" color="#000" font-family="sans-serif" font-weight="400" overflow="visible" transform="matrix(0.26458203,0,0,0.26458203,122.88077,-833.83507)" style="line-height:normal;font-variant-ligatures:normal;font-variant-position:normal;font-variant-caps:normal;font-variant-numeric:normal;font-variant-alternates:normal;font-variant-east-asian:normal;font-feature-settings:normal;font-variation-settings:normal;text-indent:0;text-align:start;text-decoration-line:none;text-decoration-style:solid;text-decoration-color:#000;text-transform:none;text-orientation:mixed;white-space:normal;shape-padding:0;shape-margin:0;inline-size:0;isolation:auto;mix-blend-mode:normal;solid-color:#000;solid-opacity:1"/><path fill="#606277" d="m -380.12305,3312.6625 a 1.65625,1.65625 0 0 0 -1.65625,1.6563 1.65625,1.65625 0 0 0 1.65625,1.6562 1.65625,1.65625 0 0 0 1.18457,-0.5 1.8359375,1.8359375 0 0 1 -1.39551,-1.7812 1.8359375,1.8359375 0 0 1 0.31543,-1.0273 1.65625,1.65625 0 0 0 -0.10449,-0.01 z" transform="matrix(0.26458203,0,0,0.26458203,122.88077,-833.83507)"/><path fill="#606277" d="m -286.37988,3314.8071 a 1.8359375,1.8359375 0 0 1 0.0147,0.2304 1.8359375,1.8359375 0 0 1 -1.83594,1.836 1.8359375,1.8359375 0 0 1 -0.20703,-0.012 1.546875,1.546875 0 0 0 1.41016,0.9102 1.546875,1.546875 0 0 0 1.54687,-1.5469 1.546875,1.546875 0 0 0 -0.92871,-1.418 z" transform="matrix(0.26458203,0,0,0.26458203,122.88077,-833.83507)"/><path fill="#606277" d="m -309.00586,3268.0688 a 1.90625,1.90625 0 0 0 -1.29493,0.5449 1.8359375,1.8359375 0 0 1 0.14649,-0.01 1.8359375,1.8359375 0 0 1 1.83594,1.8359 1.8359375,1.8359375 0 0 1 -0.69336,1.4365 1.90625,1.90625 0 0 0 0.0449,0 1.90625,1.90625 0 0 0 1.90625,-1.9062 1.90625,1.90625 0 0 0 -1.90625,-1.9063 1.90625,1.90625 0 0 0 -0.039,0 z" transform="matrix(0.26458203,0,0,0.26458203,122.88077,-833.83507)"/><path fill="#606277" d="m -332.84961,3233.8266 a 2.0546875,2.0546875 0 0 0 -2.05469,2.0547 2.0546875,2.0546875 0 0 0 0.10352,0.6426 1.8359375,1.8359375 0 0 1 1.64648,-1.0254 1.8359375,1.8359375 0 0 1 1.83399,1.7539 2.0546875,2.0546875 0 0 0 0.52539,-1.3711 2.0546875,2.0546875 0 0 0 -2.05469,-2.0547 z" transform="matrix(0.26458203,0,0,0.26458203,122.88077,-833.83507)"/></g></svg>